<svg width="580" height="400" xmlns="http://www.w3.org/2000/svg">
 <!-- Created with Method Draw - http://github.com/duopixel/Method-Draw/ -->

 <g>
  <title>background</title>
  <rect fill="#fff" id="canvas_background" height="402" width="582" y="-1" x="-1"/>
  <g display="none" overflow="visible" y="0" x="0" height="100%" width="100%" id="canvasGrid">
   <rect fill="url(#gridpattern)" stroke-width="0" y="0" x="0" height="100%" width="100%"/>
  </g>
 </g>
 <g>
  <title>Layer 1</title>
  <metadata transform="matrix(0.014692359336267169,0,0,0.014692359336267169,0,0) " id="svg_7">image/svg+xml</metadata>

  <g stroke="null" id="svg_9">
   <path stroke="null" fill="#d4011d" id="svg_6" d="m123.707609,349.391599c-0.44022,-1.141682 -0.433971,-1.501166 0.070468,-4.048163c0.339031,-1.711604 0.750497,-2.84085 1.061468,-2.912998c0.405564,-0.094081 0.46313,0.163398 0.285631,1.277809c-0.12219,0.767561 -0.115074,2.211167 0.015621,3.208031c0.238363,1.815103 -0.099164,3.728268 -0.657813,3.728268c-0.160895,0 -0.509877,-0.563837 -0.775606,-1.252947l0.000231,0zm-19.433654,-3.718673c-0.091064,-0.154757 -0.494372,-0.366689 -0.896292,-0.470847c-0.454163,-0.117852 -0.768027,-0.605795 -0.829469,-1.289773c-0.116867,-1.301384 0.84833,-5.4394 1.046194,-4.485359c0.095056,0.458273 0.302987,0.503544 0.691195,0.150539c0.756629,-0.688108 0.947436,-0.215531 0.947436,2.347294c0,2.053343 -0.592899,4.370348 -0.959065,3.748146zm14.025125,-1.564574c0.026613,-1.282332 1.161268,-5.690263 1.196097,-4.646024c0.012728,0.379932 0.147126,0.560474 0.298822,0.401156c0.449766,-0.47239 0.57508,2.69848 0.158928,4.020843c-0.505596,1.606286 -1.685725,1.766135 -1.653847,0.224025zm15.481108,-6.967453c-0.495356,-1.014186 -0.109057,-3.200442 0.622984,-3.525753c0.796144,-0.353772 0.95299,-0.022119 0.95299,2.016664c0,1.900405 -0.943559,2.803896 -1.575974,1.509089zm-0.821485,-13.94862c-0.379183,-0.258206 -0.775779,-1.054325 -0.881365,-1.769124c-0.105586,-0.714799 -0.654862,-2.015406 -1.220685,-2.89025c-1.011192,-1.563572 -1.031731,-1.571004 -1.210503,-0.438209c-0.100032,0.633871 -0.183806,1.79144 -0.18612,2.572429c-0.005786,1.515283 -0.454683,2.378458 -0.777515,1.490892c-0.107263,-0.294964 -0.361479,-0.532624 -0.564898,-0.52821c-0.222222,0.004915 -0.183979,0.212218 0.095924,0.519618c0.414127,0.454675 0.414127,0.509934 0,0.497302c-0.726429,-0.022119 -1.748903,-3.223141 -1.981538,-6.203638c-0.217882,-2.790841 0.005786,-3.580236 1.44551,-5.111257c0.273018,-0.290216 0.540251,-1.121322 0.593825,-1.846925c0.121843,-1.648628 -0.825824,-1.866852 -1.796575,-0.413681c-0.528102,0.790447 -0.811592,0.872632 -1.492836,0.432448c-0.628712,-0.406091 -0.784458,-0.387806 -0.617025,0.072551c0.157482,0.432979 0.047441,0.493458 -0.370446,0.203626c-1.178451,-0.817137 -1.523383,-0.600024 -1.627581,1.024312c-0.056119,0.870666 -0.222684,1.795323 -0.370794,2.054876c-0.153432,0.268853 -0.198327,0.010519 -0.104313,-0.600122c0.090717,-0.589466 -0.010992,-1.256309 -0.225461,-1.481779c-0.274928,-0.28878 -0.331741,-0.150294 -0.192079,0.468163c0.109115,0.482949 0.062946,0.878059 -0.102461,0.878059c-0.165466,0 -0.300789,-0.601086 -0.300789,-1.335752c0,-1.477601 -0.639588,-2.151887 -1.475132,-1.555127c-0.29888,0.213515 -0.862389,0.425153 -1.252159,0.470375c-0.608173,0.070585 -0.683674,-0.111363 -0.532267,-1.282951c0.097081,-0.750848 0.517919,-2.511183 0.935228,-3.911878c0.417309,-1.400655 0.693625,-2.7258 0.613959,-2.944781c-0.079667,-0.218981 -0.230321,-1.316317 -0.334866,-2.438553c-0.104544,-1.122237 -0.254331,-2.21851 -0.332956,-2.436194c-0.210477,-0.583036 -1.901582,-0.4817 -2.123052,0.12725c-0.186236,0.51194 -2.2685,-0.649227 -2.630499,-1.466944c-0.666433,-1.505196 -1.223115,-1.747948 -2.147004,-0.93609c-1.271424,1.117203 -1.448056,1.06512 -2.571024,-0.758428c-0.536144,-0.870666 -1.268532,-1.586615 -1.627523,-1.591078c-1.098785,-0.013468 -3.329852,-1.332921 -3.070661,-1.815968c0.134282,-0.250184 0.005786,-0.308216 -0.291127,-0.128931c-0.66059,0.402356 -1.126729,-0.856785 -0.938005,-2.533981c0.164829,-1.465499 1.541087,-3.779241 2.404922,-4.043306c0.474181,-0.144916 0.636291,-0.652343 0.685178,-2.145448c0.035292,-1.07558 0.295177,-2.555009 0.577683,-3.287562c0.634324,-1.645079 0.379993,-3.774689 -0.507968,-4.253607c-0.737942,-0.397942 -3.084026,1.962899 -3.084026,3.103431c0,0.842383 -1.095487,2.614279 -1.711239,2.767837c-0.79007,0.197049 -0.886456,-1.892865 -0.148803,-3.227024c0.705428,-1.275991 0.616389,-2.537156 -0.144175,-2.041241c-0.23738,0.154757 -0.69403,0.042764 -1.014779,-0.248897c-0.472966,-0.430147 -0.803955,-0.176502 -1.751275,1.342191l-1.168037,1.872505l0.694204,1.255641c0.795277,1.438425 0.740141,1.469677 -1.160053,0.65662c-1.896202,-0.811327 -2.394624,0 -1.178567,1.912359c0.72747,1.145614 0.802393,1.474229 0.428128,1.876536c-0.764035,0.821129 -3.313016,0.612607 -3.516319,-0.287669c-0.101999,-0.451461 -0.565187,-0.791508 -1.078304,-0.791508c-0.494719,0 -1.232777,-0.434512 -1.640077,-0.965563c-1.091263,-1.422686 -1.85067,-1.769448 -2.34591,-1.071116c-0.706353,0.996186 -1.03526,-0.113625 -1.046599,-3.531947c-0.019671,-5.86762 0.151002,-7.279217 1.188865,-9.839309c0.552864,-1.36379 1.144664,-2.626047 1.315105,-2.805046c0.540945,-0.568054 0.212386,-3.467073 -0.463535,-4.090425c-0.960453,-0.885727 -3.243069,-1.565017 -5.021536,-1.494363c-1.162367,0.046401 -1.644706,-0.153135 -1.775921,-0.73391c-0.246984,-1.093836 -0.819576,-1.006351 -0.825419,0.126129c-0.007521,1.476726 -0.46313,2.307047 -1.357397,2.473846c-0.979256,0.182627 -2.053857,-1.770078 -2.053857,-3.732338c0,-0.686407 -0.13972,-1.248032 -0.310566,-1.248032c-0.170788,0 -0.310508,0.35619 -0.310508,0.791528c0,0.435348 -0.192542,0.791538 -0.427781,0.791538c-0.235297,0 -0.609099,0.371172 -0.830684,0.824884c-0.365355,0.748046 -0.428244,0.748046 -0.674591,0c-0.14944,-0.453712 -0.592437,-0.824884 -0.984463,-0.824884c-0.392084,0 -0.955709,-0.456032 -1.252564,-1.01337c-0.514564,-0.966202 -0.510109,-1.040287 0.095635,-1.591127c0.898143,-0.816783 0.501257,-2.040523 -0.848619,-2.61655c-3.55919,-1.518763 -6.357643,-1.075442 -7.459262,1.181654c-0.363504,0.744724 -1.592347,1.266248 -1.592347,0.67577c0,-0.108621 0.204286,-1.181379 0.453989,-2.383894c0.50496,-2.432134 0.36038,-3.754251 -0.409614,-3.744204c-0.689517,0.008848 -3.236879,5.029229 -4.473764,8.816806c-1.268589,3.884411 -3.368846,8.520761 -3.877798,8.560222c-0.532383,0.041289 -0.490033,-0.454243 0.235239,-2.753602c0.34285,-1.087033 0.687955,-2.832936 0.766812,-3.879771c0.154357,-2.048476 0.868695,-3.318991 1.881217,-3.345908c0.37953,-0.010027 0.865281,-0.701458 1.216636,-1.731767c0.321675,-0.943237 0.9074,-2.379411 1.301625,-3.191496c0.394283,-0.812084 0.945758,-2.296203 1.225545,-3.298042c0.279787,-1.001849 0.609215,-1.821542 0.732099,-1.821542c0.283259,0 0.355173,-0.908633 0.459312,-5.804556c0.046284,-2.176719 0.25086,-5.124873 0.454568,-6.551481c0.228412,-1.59967 0.257745,-2.712047 0.0766,-2.902283c-0.568022,-0.596563 -0.500042,-1.045399 0.400705,-2.642897c0.499926,-0.88672 0.834734,-1.738413 0.743959,-1.892658c-0.090775,-0.154255 0.064103,-1.9954 0.344122,-4.091438c0.390001,-2.919064 0.646647,-3.85596 1.096528,-4.003197c0.832882,-0.27253 1.697412,-2.210508 1.709561,-3.832101c0.005786,-0.758221 0.429574,-2.274998 0.941997,-3.370613c0.828833,-1.77229 1.069857,-2.614643 0.868174,-3.034203c-0.034713,-0.072551 0.158118,-0.8443 0.42888,-1.714986c0.270762,-0.870686 0.823336,-2.873901 1.227975,-4.4516c0.404639,-1.577698 1.120017,-3.772133 1.589685,-4.876546c0.469726,-1.104394 0.854,-2.329431 0.854,-2.72231c0,-0.392869 0.279556,-1.14411 0.621133,-1.66942c0.341635,-0.5253 0.621075,-1.190659 0.621075,-1.478574c0,-0.287915 0.489107,-1.537736 1.086924,-2.777382c0.597817,-1.239646 1.086924,-2.373041 1.086924,-2.518655c0,-0.145604 0.705254,-2.004336 1.567238,-4.130506c1.600389,-3.947564 1.775921,-5.482282 0.817724,-7.151623c-0.502298,-0.875159 -4.146188,0.560032 -5.038546,1.984507c-0.355983,0.568221 -0.888423,1.03314 -1.183195,1.03314c-0.561426,0 -2.374201,2.042873 -2.374201,2.675506c0,0.201453 -1.142118,2.397874 -2.538105,4.880941c-2.390805,4.252614 -4.023535,8.263203 -5.087086,12.495674c-0.255257,1.015808 -0.598396,2.203105 -0.762473,2.638443c-0.377447,1.001131 -1.32928,4.370554 -1.366538,4.837145c-0.06931,0.868661 -0.553095,1.130652 -0.805691,0.436272c-0.708436,-1.947838 0.809683,-8.936595 3.686008,-16.968037c0.391795,-1.094022 0.563683,-2.067244 0.396134,-2.243195c-0.495124,-0.519922 -0.02777,-2.312149 0.68431,-2.626214c0.36819,-0.162307 1.017556,-1.191613 1.443023,-2.287365c0.425467,-1.095743 0.857992,-2.110991 0.961089,-2.256103c0.103156,-0.145122 0.942865,-1.932453 1.866059,-3.971856c0.923194,-2.039403 1.855819,-4.057807 2.072544,-4.485339c1.159185,-2.287434 1.624572,-3.355297 1.624572,-3.727796c0,-0.227908 0.419276,-1.194326 0.931641,-2.14761c0.512423,-0.953275 0.931641,-1.934734 0.931641,-2.181016c0,-0.656816 0.662152,-1.618113 1.599463,-2.322107c0.534813,-0.401687 0.958139,-1.323582 1.208767,-2.632289c0.212097,-1.107746 0.575369,-2.482478 0.807253,-3.054955c0.545285,-1.346035 0.533019,-1.861416 -0.04397,-1.861416c-0.25624,0 -0.46585,-0.135685 -0.46585,-0.301531c0,-0.165846 0.209609,-0.657731 0.46585,-1.093069c0.286499,-0.486861 0.465792,-1.780626 0.465792,-3.361136c0,-1.413288 0.15106,-2.728258 0.335733,-2.922161c0.184616,-0.193903 0.253232,-0.910796 0.152448,-1.593093c-0.201394,-1.363662 0.657581,-2.570385 1.458181,-2.048378c0.541466,0.353103 1.292599,-1.078902 0.99505,-1.897092c-0.258902,-0.711751 -2.367548,-0.171931 -2.679618,0.685975c-0.13758,0.37826 -0.720991,0.187975 -1.766259,-0.576125c-0.858454,-0.627521 -1.833892,-1.140955 -2.167658,-1.140955c-0.798401,0 -2.221059,2.074184 -1.68289,2.453565c0.544706,0.383982 0.162226,1.240246 -0.553963,1.240246c-0.434145,0 -0.539326,0.247422 -0.392547,0.923458c0.11033,0.507899 0.308194,1.048447 0.439699,1.201218c0.131563,0.152781 0.115016,0.619096 -0.036449,1.036247c-0.212444,0.58397 -0.476553,0.639023 -1.148135,0.239302c-1.035549,-0.616333 -1.372208,-2.647537 -0.502298,-3.030526c0.433682,-0.190934 0.449129,-0.261215 0.06798,-0.308481c-0.899589,-0.11155 -1.499663,-4.282716 -0.616157,-4.282716c0.121669,0 0.963751,-0.94133 1.871266,-2.09186c1.296823,-1.644066 1.770367,-1.982423 2.212149,-1.580628c0.376695,0.342506 0.824262,0.308314 1.356298,-0.103607c1.12777,-0.873104 1.094561,-3.177782 -0.05988,-4.159212c-0.469668,-0.399308 -1.093983,-1.062819 -1.38725,-1.474475c-0.293268,-0.411646 -0.816857,-0.622409 -1.163525,-0.468379c-0.567964,0.252377 -0.61419,0.089264 -0.467354,-1.648893c0.089618,-1.060942 0.19798,-2.4039 0.240851,-2.98435c0.042813,-0.58046 0.190748,-1.3626 0.328617,-1.738098c0.141051,-0.384267 0.091238,-1.009143 -0.114032,-1.429401c-0.295408,-0.604792 -0.209031,-0.813077 0.454626,-1.096097c1.232661,-0.525713 0.86181,-1.94254 -0.73343,-2.801694c-1.347099,-0.725524 -1.353463,-0.740211 -0.618471,-1.432438c0.408515,-0.38468 0.98724,-0.707829 1.28612,-0.718102c0.559864,-0.019268 0.788565,-1.074085 0.232925,-1.074085c-0.170788,0 -0.310566,-0.237454 -0.310566,-0.527679c0,-0.290235 0.558996,-0.527689 1.242208,-0.527689c0.908441,0 1.242208,-0.217114 1.242208,-0.808093c0,-1.038881 -0.579651,-1.397991 -2.407063,-1.491246c-1.990043,-0.101552 -1.952148,-1.273907 0.077931,-2.409631c2.656013,-1.485918 4.037131,-2.852785 4.037131,-3.995509c0,-1.459856 -2.903113,-2.274133 -3.478713,-0.975748c-0.205328,0.463041 -0.589602,0.700839 -0.854057,0.528436c-0.70456,-0.459433 -0.587172,0.574837 0.140357,1.236471c0.651102,0.592081 0.859843,2.110755 0.290143,2.110755c-0.719834,0 -1.574122,-1.164499 -1.404723,-1.914787c0.112528,-0.498196 0.046863,-0.643083 -0.182244,-0.402415c-0.57103,0.59966 -4.293024,0.677589 -4.293024,0.089854c0,-0.28822 -0.209667,-0.379892 -0.46585,-0.203734c-0.256183,0.176168 -0.657408,0.452689 -0.891548,0.614495c-0.234198,0.161805 -0.667995,-0.117341 -0.96404,-0.620315c-0.435071,-0.739277 -0.650176,-0.795647 -1.122737,-0.294187c-0.321501,0.341169 -1.04064,0.605254 -1.598017,0.58686c-0.983884,-0.032442 -0.991001,-0.048663 -0.244611,-0.554782c0.501893,-0.340304 0.642423,-0.654192 0.404581,-0.903934c-0.239289,-0.251295 -0.265034,-0.649443 -0.074922,-1.160203c0.499521,-1.342132 0.332436,-1.949549 -0.783821,-2.849599c-1.169599,-0.94309 -2.06404,-2.941036 -1.316667,-2.941036c0.229569,0 0.686798,-0.334739 1.01611,-0.743868c0.585667,-0.727726 0.586072,-0.76761 0.016199,-1.837006c-0.477305,-0.896157 -0.511671,-1.237562 -0.190806,-1.894565c0.305359,-0.625122 0.307442,-0.801438 0.009835,-0.801438c-0.21499,0 -0.302177,-0.352464 -0.199542,-0.806864c0.131331,-0.58164 -0.079146,-0.895676 -0.754142,-1.125078c-1.146804,-0.389723 -1.723099,-1.895706 -1.075122,-2.8095c0.545342,-0.769065 2.494019,0.154747 2.895071,1.37247c0.151175,0.459089 0.466891,0.634972 0.776937,0.432811c0.287309,-0.187307 0.44508,-0.552934 0.35066,-0.812517c-0.09442,-0.259583 0.338742,-0.98373 0.962652,-1.609206c1.010498,-1.013105 1.114811,-1.31553 0.955651,-2.770776l-0.178715,-1.633557l0.614537,1.244227c0.723016,1.463828 1.429485,1.199635 1.852926,-0.692935c0.19717,-0.881106 0.454799,-1.2191 0.77173,-1.012446c0.342271,0.223179 0.480313,-0.038733 0.492058,-0.933534l0.016199,-1.243755l0.487372,1.187307c0.268101,0.653002 0.672797,1.187297 0.899358,1.187297c0.559459,0 2.095571,-2.472342 1.75706,-2.827883c-0.148746,-0.156163 -1.937395,-0.447548 -3.974879,-0.647516c-2.654278,-0.260517 -4.031056,-0.642198 -4.856591,-1.346379c-0.633745,-0.540538 -1.332462,-0.990219 -1.552774,-0.999293c-0.220312,-0.008848 -1.099305,-0.600555 -1.953305,-1.31439c-1.686824,-1.409965 -3.618202,-1.678769 -5.026222,-0.699551c-0.606785,0.422037 -5.433407,0.654192 -15.780508,0.759027c-14.066029,0.142517 -18.324572,0.530294 -19.71564,1.795284c-0.289796,0.263564 -1.187708,0.631473 -1.995308,0.81758c-1.878151,0.432811 -2.747424,-0.652245 -2.492457,-3.111266c0.406201,-3.91818 1.650202,-4.424879 9.297088,-3.786899c2.220422,0.185252 4.470408,0.568172 5.000014,0.850926c1.310708,0.699816 19.670051,0.671081 22.017696,-0.034506c1.024788,-0.307999 3.260715,-0.691952 4.968772,-0.853246c2.68228,-0.253281 3.359416,-0.137435 4.968772,0.850061c4.377724,2.686143 7.177508,3.180121 10.260492,1.810286c1.017961,-0.452316 2.276484,-0.688137 2.796601,-0.524041c1.026871,0.323965 3.895907,-0.906273 5.057406,-2.168609c0.398101,-0.432654 0.887208,-0.681079 1.086924,-0.552049c0.199716,0.129029 0.692468,0.026642 1.094966,-0.227544c0.585725,-0.369894 0.693452,-0.721955 0.539615,-1.763511c-0.150655,-1.01977 -0.090601,-1.235094 0.277415,-0.995114c0.258323,0.168431 0.469668,0.51829 0.469668,0.77748c0,0.719773 0.857876,0.560897 1.298443,-0.240481c0.414937,-0.75481 1.496539,-0.558489 1.496539,0.271645c0,0.270731 0.673492,0.440008 1.496712,0.376186c0.823163,-0.063802 1.629779,0.023692 1.792352,0.194434c0.162631,0.170771 1.201015,0.127673 2.307494,-0.095752c1.106479,-0.223454 2.431073,-0.195299 2.943496,0.062524c4.934291,2.483175 10.713266,3.242449 11.991865,1.575545c1.275011,-1.662302 1.756771,-1.728346 2.404286,-0.329657c0.453121,0.978825 0.892068,1.293234 1.797038,1.287129c1.745431,-0.011797 2.070982,-0.538591 1.866638,-3.020587c-0.095287,-1.158001 -0.41916,-2.98147 -0.719602,-4.052164c-0.728685,-2.596594 -0.323989,-3.736762 1.326502,-3.736762l1.208362,0l-0.112239,4.881108c-0.097775,4.252821 -0.046284,4.881108 0.397928,4.881108c0.280597,0 0.587345,-0.34168 0.681649,-0.759283c0.094304,-0.417603 0.588618,-0.914974 1.098438,-1.105239c0.830915,-0.310113 0.91764,-0.530333 0.836759,-2.125442c-0.117677,-2.320131 1.169831,-6.001801 2.105869,-6.021905c0.95218,-0.020448 1.230232,0.938302 1.181865,4.075384c-0.046284,2.989246 0.288581,3.558175 0.853595,1.451136c0.194567,-0.725563 0.537706,-1.319217 0.762531,-1.319217c0.224825,0 0.652085,-0.653012 0.949461,-1.451136c0.897275,-2.40854 1.770251,-3.806993 2.382474,-3.816617c0.458386,-0.006882 0.534755,0.239341 0.365124,1.178174c-0.117967,0.653022 -0.293673,2.349378 -0.390522,3.769705l-0.176053,2.582408l0.897796,-0.368616c0.493794,-0.202741 1.071072,-0.753837 1.282764,-1.224664c0.694146,-1.543487 0.788392,-0.239951 0.116289,1.607948c-0.88096,2.422126 -0.837742,2.647222 0.430442,2.24295c0.90821,-0.289527 1.218545,-0.122934 1.887177,1.013223c0.440104,0.74784 1.383374,1.704398 2.096149,2.125678c1.179493,0.697123 1.331594,0.684815 1.692552,-0.136953c0.218114,-0.496604 0.366744,-1.761594 0.330295,-2.811082c-0.074286,-2.140041 1.221495,-6.438388 2.21267,-7.339746c0.850181,-0.773164 1.873928,-0.661319 1.873928,0.204737c0,0.482329 0.21742,0.645511 0.621133,0.466148c0.356793,-0.158561 0.621075,-0.016221 0.621075,0.334611c0,0.903698 -1.302319,3.733989 -1.718124,3.733989c-0.55674,0 -1.915583,2.242488 -2.146194,3.541954c-0.113975,0.642051 -0.046863,1.676557 0.149151,2.298897c0.295061,0.936808 0.525151,1.067636 1.337032,0.760168c0.539383,-0.204255 1.165549,-0.387865 1.391532,-0.408018c0.250686,-0.022414 0.349329,-0.436498 0.253,-1.062249c-0.174086,-1.131596 1.002629,-3.494285 1.806411,-3.626843c0.263935,-0.043551 0.646763,-0.102899 0.850702,-0.13192c0.256588,-0.036571 0.345222,0.881569 0.288003,2.981431c-0.051491,1.895116 0.042234,3.034203 0.250339,3.034203c0.183169,0 0.333072,0.324486 0.333072,0.721071c0,0.566147 0.467064,0.664288 2.173849,0.456789c2.157302,-0.262286 2.173849,-0.254195 2.173849,1.065139c0,0.849147 -0.291532,1.653956 -0.80679,2.227692l-0.806848,0.898251l0.69241,0.824039c0.618818,0.736495 0.844916,0.741096 2.129127,0.043256c0.790185,-0.42939 1.610282,-0.682406 1.822437,-0.562254c0.467932,0.265068 0.515721,3.097828 0.060227,3.576136c-0.350197,0.367761 -0.091064,4.931196 0.323526,5.697626c0.340651,0.629772 2.796891,-0.737341 2.796891,-1.556729c0,-1.064274 1.14611,-1.860246 2.419849,-1.680548c0.971041,0.136992 1.140556,0.341729 1.081891,1.306781c-0.063294,1.042755 0.063236,1.136187 1.425261,1.052536c1.199221,-0.073633 1.721595,-0.430255 2.64236,-1.803945c0.631142,-0.941674 1.38725,-1.70425 1.680229,-1.694587c0.841908,0.027723 1.835454,1.742659 2.072602,3.577385c0.212097,1.640783 0.25896,1.681935 1.916162,1.681935c0.934303,0 2.076131,-0.322824 2.537353,-0.717384c0.461221,-0.39456 1.467495,-0.856805 2.236101,-1.027202c2.541055,-0.563355 3.660841,-1.685818 4.034585,-4.044112c0.467064,-2.947426 1.938089,-4.765055 3.85645,-4.765055c1.629201,0 2.289038,0.460141 3.422999,2.386922c0.891374,1.514712 1.783037,1.676508 2.389648,0.433618c0.234429,-0.480294 0.910293,-1.217055 1.501861,-1.637244c1.051343,-0.746709 1.095198,-0.726782 1.940924,0.881598c0.582775,1.108287 0.865281,2.22433 0.865281,3.418194c0,1.526883 0.122769,1.814336 0.885473,2.073535c0.487024,0.165512 1.183542,0.16849 1.547798,0.006882c1.016515,-0.451696 2.233902,0.226197 2.029732,1.130239c-0.210651,0.932915 0.936096,3.796985 1.681212,4.19883c0.295987,0.159633 0.676674,0.807267 0.8459,1.439182c0.169284,0.631925 0.517398,1.309022 0.773639,1.504665c1.651938,1.26148 1.707999,1.393174 1.707999,4.013175c0,3.138576 0.968668,5.763463 2.311891,6.264756c1.496597,0.558538 1.787608,1.621495 0.962999,3.516797l-0.704618,1.619342l0.63172,1.073358c0.550723,0.935844 1.253721,1.138202 5.486807,1.579507c4.144857,0.432094 4.932092,0.39164 5.381106,-0.276531c1.895855,-2.821542 5.128915,-3.840438 8.755391,-2.759195c2.174659,0.648391 2.74135,1.023299 3.217035,2.128332c0.317509,0.737724 1.086114,1.813923 1.707999,2.391572c0.621885,0.577639 1.549939,1.461596 2.062304,1.964325c2.312296,2.268667 5.83712,3.555236 11.95611,4.363958c6.037125,0.797898 9.213372,1.466237 11.335035,2.385074c1.024788,0.443822 2.42737,0.986886 3.11683,1.206821c0.68946,0.219915 1.441692,0.597468 1.671724,0.839001c0.229974,0.241543 1.901814,0.612578 3.715225,0.82455c4.17338,0.487825 5.626122,1.51775 5.626122,3.988657c0,1.59388 0.077815,1.709068 1.377357,2.040228c0.757555,0.193028 6.731734,0.060754 13.275959,-0.293932c6.544225,-0.354696 14.06464,-0.663767 16.712091,-0.68683c5.709781,-0.049744 19.328069,0.34341 19.59912,0.565783c0.104429,0.085626 3.807735,0.29169 8.229545,0.457831c4.42181,0.166141 8.80827,0.387246 9.747664,0.491344c0.939394,0.104079 4.475152,0.337836 7.857132,0.51945c5.703417,0.306269 6.142306,0.264488 6.055697,-0.576341c-0.130695,-1.268362 1.318287,-1.695069 3.970251,-1.169218c1.180997,0.23419 5.431324,0.690222 9.445197,1.013419c9.84972,0.793111 11.212614,1.010952 11.720119,1.873311c0.239636,0.407094 0.879803,0.75132 1.422716,0.764955c0.542913,0.013665 3.782048,0.261539 7.198046,0.550909c3.416056,0.28937 6.630198,0.534718 7.142621,0.545217c0.875001,0.01799 4.674868,0.583793 8.540112,1.271754c0.939394,0.167212 3.417098,0.441522 5.505957,0.60957c3.332976,0.268145 3.821794,0.199969 3.992756,-0.556808c0.249066,-1.102929 0.733892,-1.100029 1.210387,0.006882c0.324683,0.754476 1.046831,0.855261 5.454061,0.76123c4.844442,-0.103361 5.102765,-0.056724 5.5744,1.00581c0.540425,1.217389 0.758076,1.246872 8.203916,1.110892c3.336968,-0.060951 3.743458,-0.172374 4.140171,-1.134938c0.416904,-1.011355 0.736091,-1.06219 6.082136,-0.968738c5.101781,0.089165 5.76104,-0.002949 6.884298,-0.962299c2.337058,-1.996039 9.986953,-2.348257 20.398331,-0.939187c4.004617,0.541993 6.055639,0.621819 6.619321,0.257617c1.213627,-0.784027 3.032824,-0.640055 4.17795,0.330659c0.726892,0.616166 1.451007,0.770117 2.566569,0.54562c1.425666,-0.286912 1.629779,-0.183876 2.472555,1.248258c0.882927,1.5003 1.023457,1.558971 3.614557,1.509266c2.731109,-0.052398 4.255476,0.327789 4.931051,1.229825c0.228875,0.30563 0.569179,0.309022 0.884894,0.008848c0.282796,-0.268942 1.160921,-0.311774 1.957181,-0.095457c0.794351,0.215796 3.228606,0.686722 5.409628,1.04653c3.46477,0.571603 4.033197,0.553603 4.502923,-0.142586c0.452716,-0.671012 1.052211,-0.721356 3.798305,-0.318902c1.793451,0.262827 3.95949,0.481356 4.813489,0.485632c0.854,0.003932 2.461099,0.458558 3.571339,1.009507c1.110182,0.550958 3.136558,1.234918 4.502923,1.519913c3.148997,0.656797 5.187754,1.327504 5.713484,1.879554c0.226271,0.23763 1.032136,1.410909 1.790732,2.60727c1.613117,2.543959 2.093199,2.843721 4.666479,2.914129c2.103092,0.05751 2.60782,0.654093 1.814163,2.144219c-0.33961,0.637656 -0.403192,1.088694 -0.185657,1.317103c0.653416,0.686211 0.30993,1.279697 -0.833808,1.440529c-1.072461,0.150834 -1.198006,0.343518 -1.587776,2.436666c-0.388092,2.08427 -0.375191,2.332695 0.155283,2.993434c0.318145,0.3963 0.935228,0.599847 1.371224,0.452335c0.593247,-0.200726 1.057187,0.151522 1.843669,1.399888c0.754431,1.1976 0.941245,1.783202 0.662268,2.07619c-0.433104,0.454842 -1.880755,0.131782 -2.379177,-0.530933c-0.322137,-0.428447 -1.914253,0.598648 -1.702619,1.098417c0.061442,0.145122 -0.04802,0.771709 -0.243744,1.392447c-0.313054,0.993945 -0.254505,1.195929 0.490959,1.692896c0.46556,0.310359 2.626507,0.677107 4.802092,0.815004c2.175584,0.137897 4.097069,0.399308 4.269998,0.580923c0.527812,0.554271 0.350834,1.323297 -0.304492,1.323297c-0.746389,0 -3.107631,1.67869 -3.107631,2.209318c0,0.207509 -1.102487,0.250263 -2.449933,0.094966c-1.536401,-0.177023 -2.524162,-0.078155 -2.649013,0.265137c-0.324336,0.891596 2.955356,2.080142 6.806946,2.466856c1.024846,0.102889 3.120995,0.315087 4.658264,0.471555c1.537211,0.156467 4.611633,0.440008 6.832055,0.630096c3.993971,0.341935 4.046272,0.362737 4.891131,1.948065c0.469668,0.881333 0.854,2.038066 0.854,2.570522c0,1.338849 1.717892,2.990455 3.539808,3.403163c0.883679,0.200185 1.780029,0.784401 2.138731,1.393951c1.000952,1.700751 2.726018,2.177024 12.697524,3.50561c3.920958,0.522419 7.249827,1.160115 7.397531,1.417122c0.621538,1.081517 0.612223,3.119052 -0.020249,4.393372c-0.616678,1.242792 -0.764324,1.283629 -4.236037,1.171509c-3.090968,-0.099832 -3.545131,-0.009929 -3.228027,0.639377c0.202956,0.415558 0.706758,0.899569 1.119439,1.075599c0.412739,0.176031 1.12615,0.9117 1.585404,1.634835l0.834907,1.314793l-1.062857,0c-1.050707,0 -1.061468,0.023889 -0.9457,2.087348c0.106569,1.89895 0.041077,2.119691 -0.723131,2.4457c-0.485347,0.206978 -1.61167,-0.005898 -2.666254,-0.504282c-1.004307,-0.474455 -2.219439,-0.862644 -2.700215,-0.862644c-0.847173,0 -1.619597,0.811534 -1.619597,1.701655c0,0.606158 1.471487,1.515155 2.937016,1.814316c1.495266,0.305237 1.603281,0.409857 1.80994,1.752677c0.152738,0.992657 0.015621,1.064146 -2.058717,1.071687c-2.736258,0.010027 -3.679181,0.748292 -1.719628,1.346458c0.748298,0.228409 1.682717,0.354558 2.076421,0.280316c0.393704,-0.074223 1.057534,0.245407 1.475132,0.710316c0.41754,0.464909 0.759175,0.737645 0.759175,0.606109c0,-0.131546 0.454221,0.003932 1.009283,0.300548c0.55512,0.296841 2.126118,0.863971 3.491094,1.260301c2.109803,0.612578 2.598505,0.957384 3.260715,2.300411c0.428417,0.868897 1.163293,1.73568 1.633019,1.926181c0.469668,0.190511 0.854,0.53923 0.854,0.774924c0,0.533184 -1.612654,1.155907 -3.259674,1.258747c-0.683848,0.042666 -1.566486,0.383471 -1.96152,0.757307c-0.395035,0.373836 -1.142928,0.604005 -1.662004,0.511487c-0.519076,-0.092508 -0.96242,-0.049449 -0.985215,0.095654c-0.056698,0.362285 1.041508,3.019653 1.890359,4.573502c1.032136,1.889345 0.873381,2.21854 -0.931641,1.931391c-3.696191,-0.588001 -3.977772,-0.52294 -4.736657,1.094101c-0.54297,1.157126 -0.898895,1.454685 -1.504581,1.257922c-0.474296,-0.154039 -1.143102,0.134024 -1.662583,0.716077c-1.072518,1.201621 -2.629574,1.245997 -4.557307,0.129885c-1.643086,-0.951318 -2.10153,-0.690389 -1.330494,0.757268c0.283606,0.532535 0.515663,1.315206 0.515663,1.739268c0,0.45208 1.292773,1.85186 3.125161,3.383835c1.718818,1.437039 3.31886,2.976466 3.555603,3.420966c0.60528,1.136432 0.145621,2.085588 -1.188113,2.453349c-0.90659,0.249978 -1.586446,-0.065572 -3.390947,-1.573992c-2.533997,-2.118246 -10.682661,-6.240326 -12.349814,-6.247287c-0.597817,-0.001966 -1.693188,0.135243 -2.434197,0.306073c-1.053021,0.242792 -1.538252,0.079531 -2.221811,-0.747457c-0.993083,-1.201621 -3.39546,-1.478761 -3.454009,-0.398472c-0.071393,1.316553 0.095692,2.781374 0.373166,3.271666c0.623273,1.101287 0.191327,1.411322 -1.812486,1.300882c-2.194156,-0.120919 -2.437726,-0.029296 -2.225629,0.8373c0.248083,1.013508 3.616235,5.539664 4.122352,5.539664c0.28054,0 0.509993,0.228645 0.509993,0.508096c0,0.279451 0.593015,1.476362 1.317882,2.659786c1.085536,1.772496 1.236075,2.24175 0.854,2.662696c-0.91631,1.009546 -1.810576,1.101041 -2.744069,0.280778c-1.224562,-1.076042 -1.175963,-1.099459 -1.555088,0.748587c-0.40973,1.997317 -1.197312,2.040789 -3.307289,0.182548c-4.66133,-4.10524 -4.479318,-3.99195 -4.997816,-3.110903c-0.264629,0.449681 -0.343312,0.817599 -0.174838,0.817599c0.281928,0 2.533013,4.816097 2.533013,5.419355c0,0.817806 -2.2917,2.007217 -3.197711,1.659678c-0.547078,-0.209858 -1.5537,-0.449691 -2.236911,-0.532968c-0.683211,-0.083267 -1.769383,-0.310801 -2.413716,-0.505569c-0.703518,-0.21266 -1.541029,-0.094081 -2.096439,0.296871c-0.753158,0.530068 -1.020391,0.516511 -1.438279,-0.072846c-0.282275,-0.398089 -0.546152,-0.605097 -0.586246,-0.459984c-0.106858,0.386154 -3.868715,-3.288978 -3.868715,-3.779526c0,-0.439772 -2.542733,-2.552729 -3.071992,-2.552729c-0.171135,0 -0.968206,-0.593644 -1.771293,-1.319217c-2.120333,-1.915682 -3.83296,-1.798135 -5.097095,0.34982c-0.714106,1.213545 -1.406516,1.783035 -2.537005,2.086679c-2.021632,0.543035 -2.627028,1.329923 -1.970893,2.561822c0.260464,0.489142 0.473602,1.270446 0.473602,1.736289c0,0.980132 -0.980992,0.838706 -2.872565,-0.414074c-1.284557,-0.850749 -1.412533,-0.748862 -0.661747,0.526843c0.276548,0.469903 0.419797,0.99538 0.318319,1.167773c-0.281581,0.478456 -3.698505,-2.190365 -5.499535,-4.295447c-1.854488,-2.167646 -2.94095,-2.48232 -2.678345,-0.77574c0.119934,0.779033 0.046863,1.01746 -0.252248,0.822476c-0.231652,-0.151031 -0.955073,-0.425566 -1.607736,-0.6101c-0.652606,-0.184524 -1.885383,-0.833604 -2.739383,-1.442397c-1.149176,-0.819212 -2.353662,-1.1447 -4.63437,-1.252328c-1.694866,-0.080023 -3.478829,-0.425016 -3.964291,-0.766735c-0.577799,-0.406632 -2.083074,-0.537264 -4.356781,-0.378083c-1.910666,0.133778 -4.10164,0.043944 -4.868856,-0.199585c-0.877604,-0.278595 -1.510713,-0.245938 -1.707305,0.088084c-0.451386,0.76704 -2.115589,0.65199 -3.36121,-0.232371c-0.771498,-0.547724 -2.689396,-0.808476 -6.792366,-0.923448c-5.447292,-0.152653 -5.76133,-0.106261 -6.648943,0.982157c-0.693972,0.850896 -1.763598,1.304765 -4.192414,1.778847c-1.793393,0.350056 -3.838341,0.963911 -4.544231,1.364104c-0.705948,0.400203 -2.872044,0.858869 -4.813547,1.019259c-1.941503,0.16039 -3.87936,0.404233 -4.306331,0.541865c-0.427029,0.137641 -2.280244,0.468979 -4.118302,0.736318c-1.838,0.267339 -3.44562,0.59504 -3.572439,0.728227c-1.334891,1.401864 -27.434267,1.278439 -38.270418,-0.180946c-1.96424,-0.264537 -4.829052,-0.634402 -6.366263,-0.821915c-3.827406,-0.466895 -4.95616,-0.626842 -7.297904,-1.034221l-2.018508,-0.351157l0.931641,1.135813l0.931641,1.135803l-2.414757,-0.270603c-1.508052,-0.169002 -2.345331,-0.079925 -2.229968,0.237159c0.101536,0.279264 0.314732,0.371143 0.473776,0.204157c0.158986,-0.166976 0.289102,-0.09182 0.289102,0.167124c0,0.263141 -3.183884,0.458087 -7.220263,0.442092c-3.971176,-0.015729 -9.17675,0.274516 -11.56796,0.645c-5.557101,0.861032 -11.162801,1.457792 -20.496164,2.181989c-8.507192,0.660031 -8.764995,0.703985 -10.869186,1.851919c-1.377762,0.751635 -4.37003,0.838283 -26.551918,0.768583c-34.313937,-0.107756 -40.761544,-0.365215 -49.998231,-1.996619c-1.622663,-0.286539 -4.138088,-0.68451 -5.589905,-0.884351c-1.451817,-0.199831 -2.723935,-0.449268 -2.827033,-0.554281c-0.371141,-0.37825 -7.905094,-0.369383 -8.608786,0.010027c-0.421822,0.227426 -0.65492,0.678818 -0.562352,1.088723c0.215105,0.952429 -0.441724,1.29695 -1.870283,0.981027c-0.990248,-0.218991 -5.626064,-0.245859 -12.062332,-0.069897c-0.683211,0.018482 -2.779418,0.004915 -4.658206,-0.030082c-1.878788,-0.035391 -3.870219,0.043256 -4.425339,0.174713c-1.129621,0.267172 -1.272755,-0.076091 -0.465792,-1.116899c0.495124,-0.638659 0.469494,-0.702461 -0.28835,-0.717767c-0.457518,-0.008848 -1.051459,-0.3899 -1.319849,-0.845981c-0.282102,-0.47941 -0.488008,-0.577551 -0.488008,-0.232715c0,0.328064 -0.130116,0.459876 -0.289102,0.292919c-0.158986,-0.166957 -0.379125,-0.056036 -0.489165,0.246537c-0.341172,0.937968 -2.401277,0.419039 -2.565181,-0.646101c-0.079782,-0.518182 -0.342734,-0.942185 -0.584395,-0.942185c-0.241603,0 -0.509414,-0.310221 -0.59504,-0.689376c-0.085626,-0.379165 -0.7078,-0.744743 -1.38268,-0.812409c-1.060022,-0.106281 -1.200263,0.005898 -1.030458,0.821306c0.281176,1.351275 1.383258,3.318913 1.858943,3.318913c0.529722,0 1.461652,2.433491 1.203676,3.142912c-0.110214,0.302996 -0.393531,0.550909 -0.629522,0.550909c-0.839999,0 -0.80893,1.122384 0.120744,4.365049c0.518208,1.807513 0.930889,3.405168 0.917004,3.550271c-0.013885,0.145113 0.332204,1.351698 0.769068,2.681257c0.457518,1.392584 0.780986,3.182343 0.762993,4.221539c-0.017357,0.992244 -0.088576,1.514752 -0.158581,1.161216c-0.209262,-1.056528 -3.348713,-3.844439 -5.514404,-4.896739l-2.022326,-0.982698l-0.349156,1.108611c-0.279382,0.887123 -0.249182,1.232784 0.151118,1.730233c0.551649,0.685375 0.368595,1.385958 -0.25572,0.978903c-0.220428,-0.143717 -0.682054,0.570984 -1.046079,1.61945c-0.592321,1.705794 -0.778094,1.876585 -2.041245,1.876585c-0.764266,0 -1.476289,0.238378 -1.582222,0.529655c-0.23628,0.649561 -1.684973,0.117419 -2.352852,-0.864374c-1.333734,-1.960402 -1.967479,-0.278694 -1.868374,4.957798c0.048598,2.563454 -0.045127,3.374014 -0.418003,3.617199c-0.26434,0.172324 -0.421764,0.475025 -0.349908,0.672644c0.232115,0.638187 -1.210619,0.398128 -1.531715,-0.254884c-0.338626,-0.688737 -3.804958,-2.863137 -4.523577,-2.837744c-0.244843,0.008848 0.18369,0.951407 0.952295,2.095055c1.624341,2.416808 1.263383,2.691618 -0.951023,0.724059c-1.687403,-1.499003 -4.3282,-2.315953 -4.3282,-1.338633c0,0.317722 0.291474,0.842776 0.647688,1.166741c0.935517,0.850739 0.572245,1.102841 -0.668285,0.463798c-0.586477,-0.30213 -2.031062,-0.607043 -3.210266,-0.67755c-1.812312,-0.108395 -2.30975,0.063114 -3.216514,1.1087c-1.03497,1.193471 -1.174748,1.217576 -3.977193,0.686574c-3.950001,-0.748449 -3.921132,-0.75306 -3.804611,0.61534c0.062541,0.734912 0.38491,1.27949 0.872455,1.473659c1.469867,0.585533 0.043391,1.145811 -1.979803,0.777637c-1.824751,-0.332085 -1.977546,-0.27832 -2.135954,0.751133c-0.093899,0.609864 -0.098817,1.575614 -0.010992,2.146264c0.136943,0.890151 0.345279,0.994269 1.467033,0.732995c1.189849,-0.277121 1.382333,-0.153223 2.140408,1.377612c0.559112,1.129099 0.83294,2.294109 0.83294,3.54394c0,1.845726 -0.009835,1.859548 -1.164566,1.602452c-0.640514,-0.142665 -1.478951,-0.432743 -1.863282,-0.644666c-0.601288,-0.331554 -0.698774,-0.197531 -0.698774,0.961139c0,0.740487 -0.13891,1.967412 -0.308773,2.726518c-0.169805,0.759057 -0.359975,4.944448 -0.422516,9.300925c-0.064219,4.47307 -0.253405,8.157994 -0.434608,8.465875c-0.538458,0.914974 -1.443833,0.254372 -1.76273,-1.286116c-0.206427,-0.997523 -0.183921,-2.207087 0.07122,-3.828159c0.205212,-1.303497 0.37305,-3.304697 0.37305,-4.447146c0,-2.580019 -0.587635,-7.446037 -1.005927,-8.329512c-0.171772,-0.362796 -0.190401,-0.663246 -0.041656,-0.66766c0.149035,-0.004915 0.081518,-0.212021 -0.150018,-0.461301c-0.347594,-0.374318 -0.330584,-0.687626 0.097833,-1.798538c0.319997,-0.829908 0.481239,-2.118718 0.420954,-3.36442c-0.090601,-1.870254 -0.162689,-2.007443 -0.976826,-1.8606c-0.65897,0.118855 -0.919029,-0.101484 -1.038847,-0.880261c-0.08794,-0.571328 -0.536838,-1.304126 -0.997596,-1.628376c-1.202692,-0.846473 -3.089175,0.558076 -3.552768,2.64506c-0.189649,0.85357 -0.558649,1.561409 -0.820154,1.573019c-0.262778,0.011502 -0.080303,0.384935 0.408226,0.834764c0.748298,0.689022 3.619359,5.31737 3.619359,5.834648c0,0.641067 -1.968868,-0.05987 -3.235722,-1.152004c-1.781302,-1.535534 -3.300172,-1.826575 -2.656592,-0.508961c0.544359,1.114598 -0.412623,2.316042 -1.871382,2.349408c-0.597817,0.013468 -1.289186,0.24231 -1.536401,0.508057c-0.289218,0.310959 -0.828543,0.213987 -1.513027,-0.27193c-1.148135,-0.815171 -2.023194,-1.031518 -1.420691,-0.351285c0.188897,0.21323 0.439757,1.278153 0.55755,2.366503c0.131273,1.213014 0.38896,1.978835 0.665913,1.978835c0.24843,0 0.451733,0.474927 0.451733,1.055368c0,0.586349 0.207006,1.055377 0.46585,1.055377c0.256183,0 0.465792,0.35622 0.465792,0.791558c0,0.486979 -0.291127,0.791499 -0.756687,0.791499c-0.593709,0 -0.944832,0.593457 -1.630358,2.755558c-0.480545,1.515519 -1.350628,3.298848 -1.933576,3.96291c-0.58289,0.664101 -1.211776,1.720579 -1.397433,2.347825c-0.406895,1.37425 -0.740083,1.565734 -1.648177,0.947268l0.000058,0.000226zm-3.24845,-13.616741c0.065955,-0.761023 -0.064451,-1.146008 -0.38815,-1.146008c-0.317104,0 -0.487429,0.476421 -0.487429,1.36317c0,1.653091 0.729322,1.472214 0.87558,-0.217163zm7.127521,-7.049491c-0.191963,-0.978471 -0.860479,-1.140768 -0.860479,-0.208856c0,0.459482 0.221238,0.835482 0.491711,0.835482c0.270415,0 0.436343,-0.282017 0.368769,-0.626626zm-13.511661,-12.982968c-0.040499,-0.641107 0.04802,-1.165679 0.196707,-1.165679c0.370273,0 0.614826,-2.418921 0.325146,-3.215463c-0.179987,-0.494805 -0.493794,-0.43639 -1.345595,0.25043c-0.89716,0.72344 -1.05574,1.069435 -0.824088,1.798489c0.157713,0.496486 0.370099,1.571495 0.471924,2.388868c0.229106,1.839247 1.292946,1.78793 1.175906,-0.056625l0,-0.00002zm48.499378,-5.859559c0.196476,-0.540066 -0.524167,-1.110666 -1.402756,-1.110666c-0.327634,0 -0.595676,0.35617 -0.595676,0.791499c0,0.873212 1.69828,1.144376 1.998432,0.319167zm5.765264,-3.021059c0,-0.180002 -0.384332,-1.355719 -0.854,-2.612696c-0.80974,-2.166908 -1.539004,-3.195742 -1.868489,-2.635887c-0.308194,0.523648 0.265555,1.99309 0.88582,2.268716c0.444212,0.197383 0.59747,0.592248 0.493099,1.270377c-0.08846,0.574916 0.062484,1.196115 0.363157,1.494304c0.599784,0.594892 0.980413,0.678464 0.980413,0.215187zm81.674205,-28.902882c0,-0.114067 -0.209609,-0.344069 -0.465792,-0.511124c-0.25624,-0.167055 -0.46585,-0.073731 -0.46585,0.207381c0,0.281122 0.209609,0.511134 0.46585,0.511134c0.256183,0 0.465792,-0.093294 0.465792,-0.207391zm-79.426302,28.737056c-0.386357,-0.126218 -0.945295,-0.12142 -1.242208,0.010617c-0.29697,0.132077 0.019092,0.23535 0.702303,0.229491c0.683269,-0.005898 0.926145,-0.113919 0.539904,-0.240137l0,0.000029zm113.586633,-0.137917c0,-0.281112 -0.209609,-0.374436 -0.465792,-0.207381c-0.25624,0.167055 -0.46585,0.397057 -0.46585,0.511124c0,0.114057 0.209609,0.207391 0.46585,0.207391c0.256183,0 0.465792,-0.230012 0.465792,-0.511134zm-35.941691,-29.290895c-0.38196,-0.125254 -1.080676,-0.128499 -1.552716,-0.006882c-0.472098,0.121283 -0.159564,0.223769 0.694435,0.227731c0.854,0.003932 1.240183,-0.095261 0.858281,-0.220535l0,-0.000315zm-21.989752,27.733713c0.206369,-1.052074 -1.832272,-1.972868 -4.038172,-1.823901c-0.755877,0.051022 -0.824378,0.187238 -0.543028,1.080407c0.459659,1.459473 4.317902,2.085637 4.581201,0.743495zm311.934332,-135.673638c-0.083659,-0.229972 -0.431599,-0.418144 -0.773176,-0.418144c-0.341577,0 -0.540251,0.222353 -0.441377,0.494116c0.098874,0.271753 0.446757,0.459925 0.773176,0.418144c0.326419,-0.041781 0.525035,-0.264134 0.441377,-0.494116zm-265.112984,134.400636c3.219465,-1.590311 1.396276,-2.146981 -1.970777,-0.601725c-0.72585,0.333157 -1.319791,0.791351 -1.319791,1.018227c0,0.664308 1.48248,0.476677 3.290568,-0.416502zm-272.773813,-2.777313c0.182244,-0.309661 0.180913,-0.612676 -0.005786,-0.806333c-0.414763,-0.435623 -4.416892,0.253055 -4.416892,0.760069c0,0.94189 3.869467,0.982393 4.420363,0.046303l0.002314,-0.000039zm8.933179,-1.142891c0,-0.290235 -0.558996,-0.527689 -1.242208,-0.527689c-0.683211,0 -1.24215,0.237454 -1.24215,0.527689c0,0.290225 0.558938,0.527679 1.24215,0.527679c0.683211,0 1.242208,-0.237454 1.242208,-0.527679zm-1.070378,-2.593015c-0.096502,-0.265245 -1.148771,-1.131153 -2.338389,-1.924254c-1.780955,-1.187277 -2.24692,-1.3237 -2.637905,-0.772338c-1.149697,1.621298 -0.458675,2.459867 2.320106,2.815575c0.768605,0.098397 1.720149,0.220377 2.114489,0.271085c0.394398,0.050727 0.638142,-0.124822 0.541698,-0.390067zm-11.403767,-0.607839c0.58318,-0.039127 -2.638715,-1.641284 -3.363813,-1.672772c-1.617514,-0.07029 -2.173849,0.182932 -2.173849,0.989255c0,0.737105 0.275159,0.822426 1.863167,0.577747c1.068179,-0.164588 1.942891,-0.067931 2.049981,0.226531c0.102751,0.282479 0.393704,0.378683 0.646647,0.213781c0.252885,-0.164902 0.692931,-0.315451 0.977867,-0.334543zm22.722256,0.065866c0,-0.2731 -0.139778,-0.643299 -0.310566,-0.822672c-0.170788,-0.179373 -0.310566,-0.782513 -0.310566,-1.340304c0,-1.102103 1.249092,-1.943139 1.888565,-1.271606c0.204113,0.214351 0.928459,0.470021 1.609703,0.568162c0.681186,0.098112 1.403855,0.411567 1.605943,0.696503c0.566286,0.798577 12.382271,2.442073 12.519735,1.741381c0.07365,-0.375262 0.93436,-0.483991 2.50154,-0.316002c2.203181,0.236156 2.342496,0.191878 1.788302,-0.568339c-0.72128,-0.989511 -0.854,-2.729457 -0.270878,-3.551785c0.48471,-0.683537 4.470813,-0.272953 5.821441,0.599631c0.459775,0.297038 2.451091,0.540076 4.425108,0.540076c3.15513,0 3.542354,-0.095752 3.202513,-0.791528c-0.212618,-0.435348 -0.640746,-0.791538 -0.951312,-0.791538c-0.310624,0 -0.660995,-0.264596 -0.778614,-0.587991c-0.125141,-0.344039 -0.689517,-0.479586 -1.36029,-0.326707c-0.664987,0.151562 -1.463156,-0.036866 -1.900657,-0.448688c-0.414879,-0.39048 -1.422484,-0.718377 -2.239167,-0.72866c-0.816683,-0.010224 -2.284005,-0.456474 -3.260773,-0.991536c-2.232919,-1.223219 -9.873962,-1.563159 -12.215417,-0.543447c-1.291963,0.562637 -1.749944,0.537883 -2.995912,-0.161943c-0.808988,-0.454351 -2.099678,-0.767738 -2.868284,-0.696415c-0.836007,0.077565 -1.965686,-0.275617 -2.811702,-0.879081c-1.400268,-0.998772 -1.42798,-0.998221 -2.794981,0.055544c-1.762094,1.358284 -2.637789,1.351157 -5.004758,-0.040798c-1.598248,-0.939846 -2.081685,-1.02794 -2.895881,-0.527689c-1.386209,0.851762 -2.386235,0.748715 -3.97673,-0.409739c-1.484621,-1.08138 -2.388086,-2.784362 -2.395839,-4.515972c-0.012728,-2.853787 -0.266539,-2.926653 -7.750273,-2.224576c-4.249402,0.398649 -5.347839,0.717246 -4.416314,1.280906c0.223205,0.135066 0.740893,0.814935 1.150449,1.510819c0.923715,1.569647 1.22381,1.568703 2.847514,-0.008848c1.699205,-1.651046 1.991605,-1.051769 0.532325,1.091073c-1.115216,1.637676 -1.137143,1.736476 -0.659896,2.974244c0.297086,0.770392 0.904334,1.395445 1.524772,1.569441c0.567096,0.159023 1.962041,1.023899 3.09982,1.921954c1.137837,0.898045 2.293377,1.6328 2.567784,1.6328c0.559286,0 3.102597,2.131458 4.995559,4.186571c0.686046,0.744783 1.524541,1.637018 1.86334,1.982728c0.745984,0.761259 8.224396,0.937752 8.224396,0.1941l0,-0.000069zm-3.2374,-4.124971c-0.456188,-0.775111 -0.071625,-1.18305 1.115331,-1.18305c0.711618,0 1.21976,0.126061 1.129043,0.280139c-0.296565,0.503987 -2.06132,1.213939 -2.244374,0.902911zm-25.472805,-12.213264c0.162284,-0.26206 0.574501,-0.59853 0.916078,-0.747712c0.341635,-0.149192 -0.066649,-0.231604 -0.907342,-0.183148c-0.907284,0.0523 -1.580429,0.35617 -1.656277,0.747712c-0.148746,0.768032 1.193031,0.917186 1.647541,0.183148zm-4.413594,-10.696586c0.386993,-1.042469 0.059128,-2.54683 -0.555062,-2.54683c-0.258323,0 -0.555351,0.580156 -0.660069,1.289233c-0.336485,2.278046 0.510803,3.154945 1.215131,1.257597zm-0.702419,-6.609749c0.424483,-1.897298 0.249356,-1.941822 -0.949403,-0.241288c-0.624893,0.886454 -0.951543,1.727844 -0.815757,2.101238c0.334403,0.919319 1.392804,-0.195987 1.76516,-1.859951zm-113.218443,-0.158581c-0.105586,-0.290225 -0.498133,-0.524051 -0.87234,-0.519608c-0.553153,0.006882 -0.593247,0.103745 -0.214585,0.519608c0.611818,0.671848 1.331304,0.671848 1.086924,0zm2.018566,-11.149816c1.568395,-1.615862 2.117729,-3.322816 0.965139,-2.998998c-0.323237,0.090837 -0.876737,-0.278822 -1.23,-0.821374c-0.529779,-0.813559 -0.903119,-0.918444 -2.129705,-0.598333c-1.269457,0.331308 -1.384936,0.453967 -0.788565,0.837556c0.725098,0.466344 0.802624,0.822387 0.708263,3.253764c-0.046284,1.194945 0.071162,1.450792 0.665797,1.44917c0.397175,-0.000963 1.211255,-0.505884 1.809072,-1.121785zm21.990099,-5.002666l-0.096445,-2.579842l-2.950207,-0.573933c-3.328059,-0.647428 -3.720201,-0.554773 -3.507352,0.828689c0.11033,0.716676 0.560616,1.074518 1.681791,1.336539c0.842139,0.196813 1.760127,0.750258 2.04003,1.229884c1.070378,1.834499 2.402203,3.232972 2.660584,2.793859c0.147415,-0.25044 0.224594,-1.616275 0.171598,-3.035195zm-8.015424,-3.342035c0,-0.702756 -1.278367,-2.14067 -1.903145,-2.14067c-0.446237,0 -0.470189,0.192674 -0.163846,1.315098c0.25462,0.932915 0.607132,1.316297 1.212991,1.319227c0.469726,0.001966 0.854,-0.219886 0.854,-0.493654zm-18.16709,-0.557604c-0.105528,-0.290235 -0.428244,-0.524061 -0.717057,-0.519608c-0.452543,0.006882 -0.460758,0.078745 -0.059302,0.519608c0.608173,0.667837 1.019292,0.667837 0.776358,0zm41.518694,237.723253c0.083311,-0.290216 -0.105759,-0.943237 -0.42026,-1.451146c-0.314558,-0.507909 -0.571898,-0.680528 -0.571898,-0.383589c0,0.2969 -0.349329,0.150874 -0.776358,-0.324584c-0.426971,-0.475369 -0.776358,-0.615576 -0.776358,-0.311539c0,0.304047 -0.314443,0.719557 -0.698716,0.923369c-0.384332,0.203773 -0.785094,0.598687 -0.890738,0.877577c-0.11004,0.290697 -0.706411,-0.037455 -1.397433,-0.769232c-0.66302,-0.702028 -1.450081,-1.429695 -1.748961,-1.617051c-0.29888,-0.187346 -0.543491,-0.704329 -0.543491,-1.148731c0,-0.4445 -0.13972,-0.808113 -0.310508,-0.808113c-0.170788,0 -0.310566,-0.251492 -0.310566,-0.558793c0,-0.30741 0.120107,-0.432743 0.266886,-0.278605c0.232809,0.244473 0.250223,-0.942952 0.038184,-2.592543c-0.144638,-1.124301 0.041077,-1.76297 1.030689,-3.546103c0.843817,-1.520227 1.326734,-1.910766 2.731572,-2.209102c1.785583,-0.379027 3.396501,0.473875 3.596101,1.904052c0.621596,4.454342 0.677541,6.427947 0.198964,7.022554c-0.431194,0.53575 -0.359049,0.671307 0.515258,0.968434c0.953279,0.323975 1.004134,0.451274 0.816683,2.044023c-0.109925,0.934173 -0.357545,1.943365 -0.550202,2.242665c-0.216089,0.335771 -0.292226,0.342053 -0.198675,0.016319l-0.000174,0.000138zm-23.66217,-2.161767c0,-0.940072 0.676963,-4.677895 1.644474,-9.080066c0.40811,-1.856766 0.754142,-2.708232 1.028144,-2.529616c0.227139,0.148141 0.508952,0.005898 0.626224,-0.316857c0.138042,-0.379607 0.069947,-0.435761 -0.193352,-0.159269c-0.263299,0.276531 -0.331394,0.220377 -0.193294,-0.15923c0.212444,-0.584186 1.133093,-0.297372 1.11591,0.347637c-0.005786,0.186579 -0.280424,2.001485 -0.612049,4.033082c-0.331683,2.031636 -0.607074,4.201808 -0.612049,4.822664c-0.01215,1.526903 -0.910466,3.173564 -1.949949,3.574711c-0.662499,0.25566 -0.854057,0.136137 -0.854057,-0.533056zm0.776358,-0.740526c-0.105528,-0.290225 -0.253521,-0.527689 -0.328849,-0.527689c-0.075327,0 -0.136943,0.237463 -0.136943,0.527689c0,0.290216 0.147993,0.527679 0.328906,0.527679c0.180855,0 0.242471,-0.237463 0.136885,-0.527679zm10.009748,-10.175671c0.211518,-3.074381 0.407763,-4.119338 0.713296,-3.798499c0.165813,0.174153 0.301483,0.065178 0.301483,-0.242261c0,-0.307311 -0.196592,-0.558793 -0.436806,-0.558793c-0.296855,0 -0.379588,-0.371202 -0.258323,-1.159014c0.17021,-1.106301 0.189128,-1.112347 0.414879,-0.131949c0.17021,0.738992 0.253753,0.805036 0.29778,0.235586c0.033556,-0.435377 0.178367,0.748361 0.321559,2.630471c0.270993,3.562373 0.124099,4.308276 -0.900689,4.574013c-0.471924,0.122403 -0.549913,-0.144248 -0.453179,-1.549553zm-55.647091,-6.673865c-0.229627,-0.631423 0.354536,-1.257027 0.7682,-0.822662c0.347304,0.364723 0.119297,1.313918 -0.3156,1.313918c-0.150655,0 -0.354305,-0.221056 -0.452601,-0.491256zm24.364821,-4.729163c0,-0.259209 0.221064,-0.615389 0.491248,-0.791548c0.759638,-0.495335 0.860017,-0.387953 0.440393,0.47123c-0.428417,0.877243 -0.931641,1.050187 -0.931641,0.320317zm9.31647,-1.903374c0.212618,-0.435377 0.456419,-0.791558 0.541813,-0.791558c0.085452,0 -0.018514,0.35618 -0.231305,0.791558c-0.212618,0.435328 -0.456477,0.791508 -0.541871,0.791508c-0.085394,0 0.018514,-0.35618 0.231363,-0.791508zm-6.369445,-0.800248c-0.167664,-0.461055 -0.301252,-1.372618 -0.578609,-3.94893c-0.031242,-0.290274 -0.165871,-0.82453 -0.299285,-1.187336c-0.158754,-0.43173 -0.048598,-0.681148 0.319302,-0.721847c3.692025,-0.409365 3.95596,-0.400675 3.431851,0.112465c-0.30021,0.294059 -0.681649,0.392033 -0.847578,0.217782c-0.165929,-0.174241 -0.593073,-0.05171 -0.949229,0.272078c-0.473081,0.430246 -0.560501,0.767216 -0.324336,1.250647c0.225288,0.461252 0.217767,0.840849 -0.024878,1.252859c-0.256819,0.436478 -0.173565,0.513709 0.317972,0.295308c0.756977,-0.336352 0.780929,-0.228252 0.362925,1.63979c-0.306401,1.369551 -1.05036,1.801281 -1.40831,0.817187l0.000174,0zm545.370532,-143.847312c0.103156,-0.175352 0.371025,-0.19408 0.595214,-0.041781c0.247736,0.168431 0.174144,0.293479 -0.187624,0.318823c-0.327344,0.022611 -0.510803,-0.101857 -0.407589,-0.277209l0,0.000167zm-943.729959,142.591838c-0.107263,-0.294974 0.023142,-0.536281 0.289102,-0.536281c0.545516,0 0.625819,0.31667 0.19503,0.768996c-0.158986,0.166947 -0.37681,0.062229 -0.484132,-0.232715zm573.238018,-4.293854c-0.098354,-0.435328 -0.043391,-0.791499 0.122016,-0.791499c0.165466,0 0.300789,0.35617 0.300789,0.791499c0,0.435338 -0.054962,0.791558 -0.122016,0.791558c-0.06717,0 -0.202493,-0.35622 -0.300789,-0.791558zm-121.650944,-1.181811c-0.667822,-2.984616 0.281928,-6.234929 1.974249,-6.756375c0.684484,-0.21092 0.804881,-0.014353 0.983769,1.606237c0.122016,1.105298 0.385257,1.846591 0.655672,1.846591c0.637621,0 0.590064,0.179815 -0.686162,2.595473c-1.378977,2.61016 -2.444321,2.867786 -2.927528,0.708074zm-53.255417,-1.788166c-0.267059,-0.734283 0.250108,-1.818553 1.673575,-3.50852c1.692205,-2.009124 5.93935,-5.604577 6.165853,-5.21974c0.228991,0.389153 -0.488124,2.463701 -0.851685,2.463701c-0.172119,0 -0.985215,1.06858 -1.806931,2.374614c-0.821716,1.306043 -1.635333,2.374565 -1.808089,2.374565c-0.172755,0 -0.660474,0.462982 -1.0838,1.028785c-0.736727,0.984763 -2.009309,1.255248 -2.288923,0.486596zm10.185743,-2.127408c0.066071,-0.336637 0.577915,-1.029257 1.13749,-1.53923c0.559575,-0.509875 1.250886,-1.25511 1.536169,-1.655971c0.707684,-0.99422 3.62931,-3.580373 4.044768,-3.580373c0.84428,0 -0.180797,1.531985 -2.603539,3.891037c-1.452685,1.414527 -2.716935,2.779948 -2.809445,3.034212c-0.252306,0.693731 -1.444064,0.557063 -1.305443,-0.149674zm163.590708,-13.083655c0,-0.276983 0.514853,-0.391542 1.144085,-0.254667c1.606753,0.349544 1.687518,0.758192 0.149845,0.758192c-0.711676,0 -1.29393,-0.22659 -1.29393,-0.503525zm-49.358932,-145.478933c-0.113917,-0.193451 -0.207064,-0.988833 -0.207064,-1.767482c0,-1.242183 0.231826,-1.570935 1.891342,-2.682397c1.040235,-0.69669 2.023425,-1.682269 2.184783,-2.190168c0.161358,-0.507899 0.647052,-0.923458 1.07923,-0.923458c0.991926,0 1.494282,-0.463621 4.015378,-3.706139c1.908467,-2.454479 3.294098,-3.261226 3.69729,-2.152624c0.382596,1.051819 -0.271572,3.80367 -1.335701,5.619147c-1.349876,2.303006 -3.219638,4.02449 -4.672785,4.30225c-0.582659,0.111373 -1.923683,1.023801 -2.980002,2.027566c-1.805832,1.715988 -3.20043,2.2755 -3.67247,1.473305zm422.825668,141.290425c0.103156,-0.175342 0.371025,-0.19409 0.595214,-0.041584c0.247678,0.168451 0.174144,0.293489 -0.187682,0.318813c-0.327344,0.022906 -0.510745,-0.101808 -0.407532,-0.27716l0,-0.000069zm-400.925418,-147.850007c0.139894,-0.730262 2.689743,-2.462541 3.745831,-2.544746c1.658822,-0.129138 -0.704386,2.407144 -2.774848,2.978059c-0.868463,0.239469 -1.081602,0.144346 -0.970983,-0.433313zm425.515874,143.430299c-0.253637,-1.122984 -0.10385,-1.317398 1.316146,-1.708969l1.198122,-0.330365l-0.496455,1.276384c-0.597007,1.534846 -1.745431,1.969073 -2.017813,0.76295zm-1.357744,-5.511932c0,-0.447273 1.880928,-2.681473 2.257449,-2.681473c0.091122,0 -0.22604,0.71237 -0.704676,1.583056c-0.856256,1.557496 -1.552774,2.050217 -1.552774,1.098417zm-34.991362,-21.828657c-0.089502,-0.246105 -0.113859,-0.510416 -0.053805,-0.587352c1.68937,-2.173141 3.369483,-2.626538 3.369483,-0.909301c0,1.625614 -2.807594,2.893003 -3.315446,1.496653l-0.000231,0zm-370.903001,-180.351528c0,-0.544922 0.221643,-1.30332 0.492521,-1.685326c0.270878,-0.382006 0.791169,-1.774167 1.156177,-3.093669c0.865628,-3.129158 3.739582,-7.946494 5.500403,-9.219781c0.765018,-0.55319 2.229448,-1.647831 3.254235,-2.432527c1.024788,-0.784696 2.770277,-1.596977 3.878782,-1.805075c1.108504,-0.208109 2.182006,-0.613207 2.385541,-0.900218c0.352569,-0.497233 3.744037,-1.576204 5.371965,-1.709068c0.542855,-0.044239 0.883969,0.346369 1.166707,1.335978c0.775143,2.713305 -0.148456,3.779192 -4.728731,5.457145c-4.140345,1.516806 -5.981353,2.720226 -7.22466,4.722675c-0.638084,1.027664 -1.290922,1.870529 -1.450717,1.873055c-0.159796,0.001966 -0.939394,0.934213 -1.732414,2.070429c-0.79302,1.136226 -1.967364,2.439006 -2.609729,2.895067c-0.642366,0.456061 -1.585404,1.426107 -2.095686,2.155642c-1.182501,1.690743 -3.364392,1.908437 -3.364392,0.335673zm380.608142,160.364724c-1.415657,-0.411803 -1.131473,-4.797133 0.320922,-4.952883c3.181627,-0.341188 5.135974,1.319325 3.094555,2.629281c-0.469668,0.301403 -1.273218,0.993217 -1.785641,1.537363c-0.512365,0.544145 -1.245852,0.897957 -1.629837,0.786239zm3.72049,-10.155999c0.213312,-0.58046 0.655383,-1.055377 0.98238,-1.055377c0.574849,0 0.575948,0.034899 0.032399,1.055377c-0.309178,0.580451 -0.751249,1.055377 -0.98238,1.055377c-0.342618,0 -0.348635,-0.195191 -0.032399,-1.055377zm-3.798652,-3.18313c0,-0.866734 1.257134,-1.424082 2.623904,-1.16329c1.482943,0.28297 1.712917,0.535465 1.093693,1.200903c-0.626108,0.672801 -3.717597,0.64152 -3.717597,-0.037652l0,0.000039zm13.710451,-5.578496c-0.230784,-0.443399 -0.340015,-0.941251 -0.242876,-1.10634c0.239867,-0.407586 2.059816,0.908013 2.059816,1.488985c0,0.76933 -1.367348,0.481366 -1.81694,-0.382645zm7.692592,0.003932c-0.359107,-0.735315 -0.31774,-0.819035 0.32584,-0.659608c0.405507,0.100432 0.794756,0.479429 0.86505,0.842216c0.184037,0.949401 -0.704502,0.813156 -1.19089,-0.182607zm-15.515011,-7.362288c-0.651969,-1.334858 0.369984,-4.33826 1.801204,-5.293501c1.348603,-0.9001 1.486414,-1.033691 3.175668,-3.077822c0.956403,-1.157313 1.358034,-1.38704 1.626771,-0.930447c0.268679,0.456592 0.176458,0.932443 -0.373571,1.927282c-0.626918,1.133945 -0.680261,1.507634 -0.376868,2.639171c0.502125,1.872554 0.253695,2.459473 -1.74358,4.119544c-1.959322,1.628524 -3.502087,1.859686 -4.109624,0.615773zm-32.117987,-2.845657c-0.080014,-0.220014 0.199137,-0.713393 0.620323,-1.096411c0.421128,-0.383009 0.765771,-0.860796 0.765771,-1.061728c0,-0.200942 0.321675,-0.260841 0.714916,-0.133119c0.393241,0.127732 1.544848,-0.243824 2.559164,-0.825671c1.014258,-0.581847 1.903665,-0.956745 1.976447,-0.833093c0.174549,0.296606 0.148051,0.321713 -1.834528,1.738796c-2.273591,1.625132 -4.621931,2.706473 -4.802092,2.211226zm477.663713,-1.966252c-0.357313,-0.607181 -0.226156,-1.23127 0.258786,-1.23127c0.25624,0 0.46585,0.35619 0.46585,0.791528c0,0.824019 -0.367264,1.046913 -0.724636,0.439742zm-853.701936,-181.815494c0,-0.127997 0.139778,-0.379469 0.310566,-0.558843c0.170788,-0.179363 0.310508,-0.074616 0.310508,0.232705c0,0.307351 -0.13972,0.558833 -0.310508,0.558833c-0.170788,0 -0.310566,-0.104718 -0.310566,-0.232695zm848.327252,175.875293c-0.849429,-0.375911 -0.492868,-1.874736 0.559806,-2.353104c0.517456,-0.235114 1.413285,-0.194719 2.018566,0.091033c0.598569,0.282577 1.996638,0.518733 3.106878,0.524789c2.057386,0.011207 3.021484,0.528092 2.689222,1.44163c-0.185831,0.510868 -7.319079,0.762694 -8.374472,0.295652zm21.693997,-5.376925c0.469842,-0.745884 1.692494,-1.236412 1.692494,-0.679014c0,0.576253 -0.739157,1.147394 -1.484968,1.147394c-0.307153,0 -0.387803,-0.182096 -0.207526,-0.468379zm2.500036,-1.561232c0.580576,-1.152073 2.297948,-1.607093 2.297948,-0.608822c0,0.290225 -0.104776,0.557987 -0.232925,0.59503c-0.128091,0.037062 -0.512365,0.129796 -0.854,0.206133c-0.341577,0.076385 -0.882696,0.319993 -1.202403,0.541471c-0.565592,0.391817 -0.565823,0.372008 -0.008678,-0.733811l0.000058,0zm205.253635,-6.596684c-0.472676,-0.587263 -0.496513,-0.791214 -0.137001,-1.17203c0.573113,-0.607122 1.550575,-0.849786 2.066932,-0.51311c0.314558,0.20511 0.333419,0.524376 0.078741,1.332911c-0.387282,1.229806 -1.189212,1.370416 -2.008672,0.352228zm-179.121108,-0.708143c-0.29888,-0.132726 -0.543433,-0.469726 -0.543433,-0.748882c0,-0.305866 0.24681,-0.283118 0.621075,0.057215c0.341635,0.310654 0.621133,0.67519 0.621133,0.810099c0,0.134908 -0.034713,0.217733 -0.077642,0.184072c-0.042813,-0.033621 -0.322253,-0.169818 -0.621133,-0.302543l0,0.000039zm-11.878469,-4.336412c-1.336627,-0.269315 -1.567296,-0.488198 -1.65755,-1.572409c-0.23709,-2.84959 1.698511,-2.890407 3.455224,-0.072846c1.464024,2.3481 1.50487,2.310713 -1.797675,1.645275l0,-0.00002zm181.98135,0.13306c-0.341635,-0.122748 -0.935517,-0.337187 -1.319849,-0.476529c-0.493504,-0.178941 -0.698716,-0.632407 -0.698716,-1.543949c0,-1.563041 0.801467,-2.383108 2.329074,-2.383108c2.183626,0 3.097969,2.191259 1.63892,3.927735c-0.701493,0.834941 -0.849545,0.871069 -1.949429,0.475851zm-168.627749,-1.237464c0.105528,-0.290225 0.533019,-0.527689 0.949981,-0.527689c0.416904,0 0.758018,0.237463 0.758018,0.527689c0,0.290235 -0.427492,0.527689 -0.949981,0.527689c-0.554194,0 -0.870025,-0.219817 -0.758018,-0.527689zm-692.045498,-192.600223c-0.301946,-0.618201 -0.196823,-0.911317 0.567675,-1.583066c0.999795,-0.87855 2.086025,-1.079945 2.311718,-0.428624c0.075385,0.217664 0.018514,0.930044 -0.126934,1.583066c-0.202724,0.911395 -0.510167,1.187297 -1.322973,1.187297c-0.582428,0 -1.225661,-0.341405 -1.429485,-0.758674zm688.155551,191.667259c-0.337238,-0.332282 -1.105901,-0.785905 -1.708057,-1.008032c-0.602156,-0.222137 -1.863456,-0.867265 -2.80285,-1.433618c-0.939394,-0.566353 -2.43709,-1.155278 -3.328232,-1.308708c-0.891143,-0.15343 -1.753068,-0.418458 -1.91541,-0.588944c-0.543144,-0.570404 -10.420114,-0.694586 -11.889866,-0.149487c-2.471456,0.916596 -4.11512,-1.154187 -3.785403,-4.769096c0.090312,-0.989904 -0.034713,-1.187297 -0.75229,-1.187297c-0.473313,0 -1.187245,-0.38872 -1.586388,-0.863814c-0.626629,-0.745795 -0.704444,-1.185636 -0.569584,-3.219218c0.09523,-1.435712 -0.005786,-2.884725 -0.257687,-3.711084c-0.289507,-0.948202 -0.321501,-1.648991 -0.106511,-2.331565c0.27944,-0.887182 0.200237,-0.951475 -0.871298,-0.707298c-0.648267,0.147728 -1.877399,0.378939 -2.731399,0.513808c-0.854,0.134869 -2.361126,0.408795 -3.349234,0.608724c-1.541434,0.311912 -1.856166,0.224801 -2.216893,-0.613551c-0.487082,-1.13194 -0.362925,-1.969889 0.63091,-4.256625l0.718098,-1.652275l-1.332114,-0.633783c-1.578924,-0.751153 -4.042338,-0.125992 -5.878255,1.491777c-0.838379,0.738786 -1.421963,0.921757 -2.018566,0.632878c-0.46151,-0.223494 -2.33295,-0.348837 -4.158685,-0.278546c-3.518286,0.135459 -3.725928,0.260772 -6.253677,3.774325c-0.966817,1.343902 -2.228117,1.55784 -3.478251,0.589977c-0.63091,-0.488474 -0.947493,-0.488474 -1.407847,0c-0.32665,0.346615 -0.802393,0.630204 -1.057245,0.630204c-0.381555,0 -0.400936,-0.232912 -0.109635,-1.319217c0.229338,-0.855458 0.607016,-1.319227 1.074312,-1.319227c0.529953,0 0.774333,-0.384041 0.923541,-1.451136c0.430269,-3.077429 1.127828,-3.628397 5.073143,-4.00708c1.134944,-0.108935 2.054841,-0.454439 2.122068,-0.797004c0.065203,-0.332596 0.312244,-0.604713 0.548814,-0.604713c0.254794,0 0.357313,0.322697 0.251438,0.791538c-0.266134,1.17839 0.912838,1.004975 1.794203,-0.263928c0.678236,-0.976416 0.692468,-1.096922 0.189707,-1.609285c-0.716536,-0.730213 -0.690443,-1.913667 0.057277,-2.593576c0.755067,-0.686653 3.337836,-0.716637 3.583315,-0.041584c0.101015,0.277553 0.393993,0.367437 0.65116,0.199752c0.257166,-0.167694 1.056261,0.056331 1.77569,0.497764c2.306742,1.415401 4.221747,1.986385 5.49861,1.639446c1.101967,-0.299417 1.244117,-0.503888 1.244117,-1.789061c0,-0.798056 -0.223147,-1.765723 -0.495934,-2.150383c-0.453179,-0.639062 -0.451617,-0.72578 0.017935,-1.005643c0.282622,-0.168451 1.728538,-0.085037 3.213216,0.185409c1.931436,0.351815 3.218423,0.309504 4.524098,-0.14875c1.69961,-0.596485 5.180175,-0.489113 8.811568,0.271852c1.232141,0.258206 1.319849,0.192242 1.319849,-0.993197c0,-0.698371 0.279903,-1.70021 0.622058,-2.226316c0.541929,-0.833437 1.251349,-0.96282 5.512206,-1.00524c5.000593,-0.049744 5.982568,-0.348896 5.35617,-1.631473c-0.249818,-0.511458 -1.033524,-0.638148 -2.940314,-0.475349c-2.511781,0.214459 -2.621532,0.174772 -3.245789,-1.17378c-0.864703,-1.867924 -0.816625,-2.936691 0.285515,-6.349193c0.512423,-1.586507 0.931641,-3.066251 0.931641,-3.288339c0,-0.222098 -0.406606,-0.302396 -0.903581,-0.178459c-0.496976,0.123947 -1.138473,0.001966 -1.425493,-0.270918c-0.426045,-0.405138 -0.189881,-0.763363 1.285888,-1.95065c1.418203,-1.141053 1.92513,-1.329746 2.35291,-0.875847c0.847404,0.899313 1.953479,0.684775 2.585257,-0.50146c0.890159,-1.671366 2.261962,-2.485446 4.790116,-2.84257c1.308972,-0.184908 2.653236,-0.699866 3.086629,-1.182391c0.426913,-0.47529 1.672303,-0.959724 2.805164,-1.091122c1.954636,-0.226699 2.646525,0.040208 4.298058,1.657839c0.585436,0.573461 1.176021,0.570236 3.415998,-0.01858c2.88836,-0.759313 5.495023,-1.897475 7.126364,-3.111591c1.559601,-1.160764 5.063076,-2.412089 6.606304,-2.359553c0.768605,0.02615 2.026318,0.069504 2.794924,0.096342c0.768605,0.026936 2.934702,-0.455678 4.813547,-1.072267c1.878788,-0.616599 4.184604,-1.129541 5.123998,-1.139893c0.939394,-0.010322 2.267053,-0.231221 2.950265,-0.490843c0.683153,-0.259612 2.220422,-0.622576 3.415998,-0.806569c3.230631,-0.497154 4.229326,-0.823468 4.944184,-1.615498c1.645342,-1.823007 5.21269,-2.101573 6.495858,-0.507241c0.471635,0.585976 0.520754,1.062544 0.302756,2.935983c-0.360206,3.09478 -1.40831,3.693015 -5.393603,3.07849c-2.894666,-0.446339 -3.706894,-0.349004 -10.696835,1.281879c-1.878845,0.438356 -4.280585,0.93962 -5.337252,1.11391c-1.056608,0.174291 -2.523988,0.694429 -3.260773,1.155858c-0.852264,0.533764 -2.80823,0.933347 -5.376709,1.098407c-2.649534,0.17027 -4.269767,0.508548 -4.713978,0.984202c-0.372298,0.39861 -1.280623,0.874608 -2.018566,1.057756c-2.172865,0.539289 -4.657685,1.786603 -6.155207,3.089697c-0.768605,0.66884 -2.085967,1.366336 -2.927528,1.549995c-0.841503,0.183669 -1.749828,0.664268 -2.018508,1.06801c-0.480198,0.721533 -1.919518,2.064648 -4.054372,3.78337c-0.594751,0.478849 -2.201851,0.999666 -3.571282,1.157362c-1.925245,0.221705 -2.770046,0.586212 -3.725176,1.60725c-1.741787,1.861986 -2.218339,2.737626 -1.754746,3.224448c0.204229,0.214538 0.282044,0.785708 0.172871,1.269276c-0.168474,0.745844 -0.040499,0.83208 0.84347,0.568496c0.573113,-0.170889 1.498737,-0.545974 2.056924,-0.833525c0.558186,-0.287561 2.04217,-0.599129 3.297743,-0.692384c1.811386,-0.134535 2.546494,-0.452355 3.559537,-1.539004c0.702188,-0.753198 1.619712,-1.369452 2.038988,-1.369452c0.419276,0 1.085883,-0.207145 1.481265,-0.460328c1.04793,-0.670943 1.898343,0.078745 2.592083,2.284917c0.604818,1.923252 0.604875,1.95182 0.008678,2.698067c-0.366339,0.458362 -1.341718,0.75422 -2.48644,0.75422c-1.036012,0 -2.371829,0.255365 -2.968489,0.567474c-0.59666,0.312119 -2.342612,0.546859 -3.879823,0.521662c-2.210355,-0.036276 -3.0297,0.168382 -3.917371,0.978245c-0.617314,0.563237 -1.665418,1.178095 -2.329074,1.366365c-0.663714,0.18826 -1.416351,0.466295 -1.672534,0.617847c-0.256183,0.151562 -1.793451,0.326796 -3.415998,0.389408c-3.417329,0.131871 -5.026512,0.893189 -5.726906,2.709442c-0.383406,0.994348 -0.7693,1.292556 -1.672476,1.292556c-0.645721,0 -1.898285,0.613246 -2.783468,1.362757c-2.384673,2.019181 -4.102392,1.033868 -4.102392,-2.353202c0,-0.938361 -0.169053,-1.038685 -1.475132,-0.87565c-0.811303,0.101287 -1.824462,0.413592 -2.25149,0.694036c-0.426971,0.280434 -1.216057,0.67232 -1.753415,0.870863c-0.537416,0.198533 -1.224851,0.826211 -1.527723,1.394835c-0.528044,0.991428 -0.526135,1.065552 0.045706,1.805842c0.393183,0.509315 1.087966,0.70135 2.041823,0.564397c1.251002,-0.179609 1.468248,-0.061836 1.612307,0.873901c0.155341,1.009281 0.317972,1.057383 2.436048,0.720363c2.936611,-0.467249 5.641801,-1.29984 7.393597,-2.275578c0.768605,-0.428103 2.305816,-0.987741 3.416056,-1.243657c1.110182,-0.255906 2.643112,-0.618044 3.40651,-0.804741c0.763398,-0.186697 1.906153,-0.895302 2.539493,-1.57469c1.0223,-1.096539 1.563882,-1.245928 4.823035,-1.330394c2.761252,-0.071568 4.081043,-0.35039 5.323714,-1.124704c0.908731,-0.566255 1.920212,-0.910481 2.24773,-0.764936c0.338973,0.150608 0.961784,-0.224929 1.445626,-0.87163c0.81055,-1.083435 1.189675,-1.140512 8.155607,-1.227889c5.111212,-0.064097 8.238281,-0.353929 10.410973,-0.964875c2.820611,-0.793131 4.327159,-1.171047 8.540112,-2.142253c1.778872,-0.410092 2.88512,1.041958 2.734812,3.589663c-0.154994,2.627433 -0.607421,2.784038 -6.048754,2.093728c-3.486466,-0.442308 -5.547613,-0.465833 -7.089452,-0.080908c-3.88017,0.96865 -7.024944,1.174202 -8.269581,0.540528c-0.945931,-0.481553 -1.554278,-0.443458 -2.986135,0.187002c-0.989033,0.435476 -2.107257,0.654447 -2.484994,0.486606c-0.413433,-0.183718 -1.111108,0.12028 -1.75301,0.763864c-2.253342,2.259053 -11.396709,7.034548 -13.755694,7.184409c-0.727413,0.046205 -1.557171,0.477925 -1.883705,0.979995c-0.777399,1.195466 -2.335091,1.680529 -3.11602,0.970341c-0.469668,-0.42708 -0.974685,-0.383048 -1.978877,0.172531c-2.260458,1.250598 -4.990294,1.879082 -6.679317,1.537785c-0.882464,-0.178321 -2.000399,-0.154334 -2.484415,0.053283l-0.879977,0.377513l0.776416,0.676645c0.426971,0.372165 1.295492,0.835855 1.929989,1.030427c1.399284,0.429086 1.709908,1.128725 1.050591,2.366523c-0.821832,1.543133 -0.629811,3.045921 0.435418,3.407941c0.853247,0.28997 1.345595,1.398375 0.621133,1.398375c-0.780697,0 -0.150192,0.952527 1.630358,2.463032c2.875979,2.439743 3.636253,2.736309 9.238828,3.603908c2.818181,0.436429 5.682994,1.043423 6.366263,1.348886c0.683153,0.305463 2.337116,0.766214 3.675363,1.023889c1.338247,0.257666 2.770682,0.844211 3.183131,1.303428c1.96424,2.186953 -0.439236,5.901488 -2.502929,3.86816l-0.000463,-0.00002zm-896.860533,-195.657803c0,-0.290225 0.13972,-0.527689 0.310508,-0.527689c0.170846,0 0.310566,0.237463 0.310566,0.527689c0,0.290235 -0.13972,0.527689 -0.310566,0.527689c-0.170788,0 -0.310508,-0.237454 -0.310508,-0.527689zm932.884147,194.068839c0,-0.286981 0.349329,-0.52178 0.776358,-0.52178c0.427029,0 0.776358,0.185665 0.776358,0.412589c0,0.226925 -0.349329,0.461734 -0.776358,0.52178c-0.427029,0.060066 -0.776358,-0.125618 -0.776358,-0.412589zm-725.845392,-198.351407c-0.309756,-0.306181 -2.196354,-0.685719 -4.192414,-0.843425c-3.564686,-0.281633 -5.647702,-1.114696 -5.647702,-2.258669c0,-0.318223 0.360958,-1.191947 0.802161,-1.941606c0.753216,-1.279943 0.928286,-1.342034 2.872565,-1.018856c3.615309,0.600938 7.332212,1.626272 7.862628,2.168943c0.680029,0.695756 0.833519,2.523777 0.303103,3.609797c-0.485578,0.994141 -1.181691,1.092911 -2.000341,0.283816zm718.02251,189.965771c-0.106338,-0.29228 0.031242,-0.677805 0.305591,-0.856726c0.594577,-0.387698 0.925971,0.03952 0.640167,0.825346c-0.25786,0.708989 -0.69403,0.723469 -0.945758,0.03136l0,0.00002zm-61.875427,-3.518282c-0.8157,-0.96692 -0.904739,-2.035284 -0.207526,-2.489939c0.787871,-0.51369 1.384473,-0.374633 1.8601,0.433539c0.557029,0.946481 0.553905,1.09415 -0.044548,2.110745c-0.591453,1.005044 -0.71804,1.000767 -1.608199,-0.054364l0.000174,0.00002zm-837.05713,-212.320042c-0.879398,-0.552728 -1.043764,-1.311706 -0.488529,-2.255179c1.013043,-1.721336 3.431966,-0.527895 3.193083,1.575398c-0.123174,1.084958 -1.506779,1.432704 -2.704554,0.679781zm847.089615,211.094474c-0.33151,-0.426107 -0.454799,-0.782297 -0.273944,-0.791528c0.180855,-0.008848 0.600073,0.331859 0.931641,0.757976c0.331568,0.426097 0.454857,0.782287 0.274002,0.791528c-0.180855,0.008848 -0.600131,-0.331859 -0.931699,-0.757976zm69.268908,-2.923783c-0.339262,-0.932669 0.176805,-2.633715 0.798979,-2.633715c0.750207,0 0.840866,2.368578 0.108941,2.845824c-0.644738,0.420395 -0.681013,0.411921 -0.907921,-0.21211zm5.934895,-4.61255c0.101594,-1.08835 0.315831,-2.395789 0.47609,-2.905409c0.34042,-1.082815 -0.269489,-5.141821 -0.772655,-5.141821c-0.1764,0 -0.050913,-0.335132 0.27863,-0.744733c0.329659,-0.409611 0.730942,-0.606591 0.891779,-0.437727c0.160722,0.168854 0.965834,0.254785 1.789054,0.190964c1.58228,-0.122689 1.992184,0.691244 1.030921,2.046874c-0.25624,0.361302 -0.46585,0.863234 -0.46585,1.115394c0,0.25217 -0.384332,1.113566 -0.854,1.914217c-0.469726,0.800651 -0.899127,1.901388 -0.95432,2.446084c-0.207353,2.047552 -0.676384,3.494993 -1.132514,3.494993c-0.371025,0 -0.432351,-0.422774 -0.287135,-1.978835zm46.535486,0.89719c-0.652085,-1.224359 -0.301367,-3.374201 0.673607,-4.129021c0.930658,-0.72055 2.279261,-0.756727 2.910981,-0.078057c0.406779,0.436921 0.391332,0.732583 -0.123,2.355434c-0.816857,2.577247 -2.574438,3.517436 -3.461588,1.851683l0,-0.000039zm-21.599866,-1.883535c-0.272324,-0.557633 -0.300095,-1.209869 -0.093899,-2.206173c0.345279,-1.668329 1.262341,-2.178204 1.430295,-0.795254c0.314963,2.593448 -0.567559,4.575547 -1.336396,3.001427zm35.045052,0.021333c-0.362405,-0.619587 -0.274349,-2.341504 0.155283,-3.035471c0.552343,-0.892196 3.032245,-1.901663 3.661767,-1.490519c0.700799,0.457713 0.302524,2.3452 -0.73962,3.505531c-0.883969,0.984143 -2.738862,1.599238 -3.07743,1.020458zm-78.180565,-2.33302c0,-0.290225 0.139778,-0.527679 0.310566,-0.527679c0.170846,0 0.310566,0.237454 0.310566,0.527679c0,0.290235 -0.13972,0.527699 -0.310566,0.527699c-0.170788,0 -0.310566,-0.237463 -0.310566,-0.527699zm14.410672,-1.137474c-0.175012,-0.481159 0.697964,-1.97447 1.176079,-2.011867c0.425524,-0.033326 0.624373,1.143353 0.289449,1.712459c-0.458386,0.778886 -1.233529,0.93725 -1.465528,0.299407zm-86.690766,-0.267379c-0.213543,-0.146381 -0.388208,-0.695874 -0.388208,-1.221095c0,-0.988842 0.581791,-1.595541 1.530037,-1.595541c0.686683,0 1.705685,1.853482 1.432319,2.605186c-0.206138,0.566727 -1.858075,0.702431 -2.574148,0.211451zm145.413898,-0.179196c-0.105759,-0.290766 0.20041,-0.781511 0.680376,-1.090523c0.480024,-0.309012 1.152185,-0.994357 1.49382,-1.52299c0.427376,-0.661339 1.34762,-1.067676 2.950207,-1.302711c3.353688,-0.491855 4.206936,-0.811868 5.92963,-2.224016c1.530384,-1.25452 2.83791,-1.273277 3.283915,-0.04709c0.316063,0.869024 -1.104223,2.494166 -2.18299,2.497764c-0.536144,0.000983 -1.358265,0.343115 -1.826891,0.758506c-0.468627,0.415391 -1.376952,0.747781 -2.018566,0.738648c-0.641613,-0.008848 -2.2674,0.599375 -3.612937,1.352248c-2.542617,1.422696 -4.366038,1.748902 -4.696564,0.840181l0,-0.00002zm-61.565034,-3.832189c-1.579445,-1.519598 -2.872102,-3.054906 -2.872565,-3.411794c0,-0.356888 -0.55512,-1.129403 -1.232604,-1.716706c-1.443543,-1.251374 -2.172055,-3.057157 -1.517598,-3.76184c0.66626,-0.717384 0.834618,-0.591894 2.202834,1.64209c0.71104,1.160911 1.474207,2.110745 1.696023,2.110745c0.221759,0 0.40325,0.204383 0.40325,0.454164c0,0.249801 0.83942,1.214371 1.865307,2.143501c1.142292,1.034546 2.045063,2.280091 2.329074,3.213438c0.860942,2.828906 0.736438,2.799728 -2.873722,-0.673598zm13.143182,-13.516408c-0.092742,-0.254972 0.038763,-1.16972 0.292053,-2.032757c0.370215,-1.2609 0.390869,-1.921394 0.105238,-3.362139c-0.195492,-0.986139 -0.506175,-2.118688 -0.690327,-2.516767c-0.299574,-0.647526 -0.760621,-2.054837 -2.563908,-7.825791c-0.434376,-1.390303 -0.457229,-1.834361 -0.128959,-2.506514c1.072981,-2.196922 2.184957,0.177417 2.187387,4.67066c0,1.253832 0.270531,2.914699 0.641613,3.949039c0.635423,1.7711 0.65492,1.782887 2.4832,1.501175c1.661021,-0.255916 1.842802,-0.185203 1.842802,0.716942c0,0.550477 -0.279498,1.297451 -0.621133,1.659953c-0.341577,0.362501 -0.621075,0.95817 -0.621075,1.3237c0,0.36552 -0.112933,0.664593 -0.250976,0.664593c-0.138042,0 -0.662094,0.94422 -1.164566,2.09827c-0.938931,2.156566 -1.218834,2.463907 -1.51135,1.659638zm-18.216556,-0.909124c-0.223842,-0.458372 -1.322742,-1.927302 -2.441949,-3.264283c-1.11915,-1.336991 -2.494193,-3.096982 -3.055734,-3.911101c-0.561426,-0.814119 -1.516441,-1.8321 -2.122184,-2.262179c-0.605801,-0.430088 -1.484563,-1.438779 -1.9529,-2.241554c-1.356703,-2.325686 -3.203207,-5.064984 -4.32606,-6.417841c-1.021143,-1.230277 -1.028086,-1.265295 -0.443749,-2.258119c0.774738,-1.316513 1.720091,-0.733536 3.514873,2.167518c0.730363,1.180622 1.453205,2.146588 1.60629,2.146588c0.153085,0 0.205849,0.199162 0.11733,0.442593c-0.088518,0.243421 0.417945,1.133896 1.125514,1.978835c0.707568,0.844919 1.849513,2.553938 2.537642,3.797811c0.688187,1.243864 1.871671,2.787351 2.629979,3.429971c1.465644,1.241947 3.14541,3.937772 3.516898,5.644186c0.289796,1.331112 -0.178599,1.827165 -0.705948,0.747575zm1.681328,-2.809273c-3.550396,-4.630589 -5.47136,-9.050544 -3.906668,-8.988727c0.298937,0.011797 1.521706,1.554537 2.717282,3.42829c1.195634,1.873753 2.324214,3.407587 2.507962,3.408501c0.18369,0.000963 0.668111,0.605991 1.076453,1.34461c0.572708,1.035853 0.668805,1.541482 0.420144,2.211265c-0.512134,1.379716 -0.785383,1.243461 -2.815173,-1.403939zm37.529467,-0.298699c0.054962,-1.118609 0.274407,-2.13134 0.487892,-2.25051c0.57589,-0.321458 0.490322,2.76418 -0.099742,3.59625c-0.431252,0.608193 -0.476321,0.451923 -0.38815,-1.34574zm-86.698576,-3.378163c0,-0.321291 -0.262373,-0.584147 -0.583064,-0.584147c-0.320691,0 -0.764151,-0.370838 -0.985504,-0.824068c-0.227949,-0.46661 -0.816914,-0.78676 -1.357918,-0.738068c-1.495844,0.134653 -1.665591,0.038832 -1.619539,-0.913519c0.023721,-0.490921 -0.23952,-1.143933 -0.584973,-1.451146c-0.358413,-0.318725 -0.581733,-0.957285 -0.52006,-1.487245c0.078857,-0.678533 -0.152275,-1.017145 -0.858049,-1.257007c-0.887729,-0.301678 -0.927186,-0.401255 -0.486677,-1.228311c0.433451,-0.813824 0.427029,-0.977537 -0.066649,-1.709402c-0.300268,-0.445159 -0.857182,-1.082786 -1.237579,-1.416965c-0.688939,-0.605244 -0.689286,-0.611614 -0.077642,-1.650869c0.898895,-1.527463 0.763341,-2.836239 -0.395324,-3.816077c-0.858859,-0.72634 -0.907342,-0.858545 -0.325088,-0.88727c0.518613,-0.02556 0.761258,-0.508528 1.003092,-1.996688c0.208336,-1.282066 0.21337,-2.142331 0.014464,-2.480128c-0.527639,-0.89659 -0.331278,-1.487078 0.394398,-1.185881c0.979025,0.406367 1.800799,-0.754859 1.574527,-2.225018c-0.152969,-0.993994 -0.06555,-1.160803 0.55836,-1.065542c0.406779,0.062131 1.019176,0.072355 1.360811,0.022807c0.52006,-0.075501 0.545342,-0.174615 0.155225,-0.609756c-0.873786,-0.974716 0.319418,-1.584924 2.406773,-1.230818c1.929237,0.327288 1.940924,0.321074 1.940924,-1.031685c0,-1.677363 0.417367,-2.173348 1.216925,-1.446211c0.404118,0.367515 0.673376,0.375714 0.80112,0.02438c0.338684,-0.931263 1.008704,-0.567317 1.211602,0.658183c0.191905,1.159033 0.207469,1.163084 0.65411,0.170437c0.443402,-0.985559 0.929732,-0.802008 0.929732,0.350921c0,0.310929 0.262836,0.630873 0.584048,0.710984c0.321212,0.080121 0.733487,0.399573 0.916136,0.709913c0.182591,0.310339 0.849313,0.564259 1.481496,0.564259c0.985909,0 1.241224,0.264508 1.795013,1.859489c0.816857,2.352318 1.318403,2.669155 2.559742,1.616914c0.546673,-0.463405 1.076048,-0.690271 1.176426,-0.504164c0.100379,0.186107 0.005786,0.445798 -0.211229,0.577089c-0.641035,0.388642 -1.350802,1.803905 -1.227975,2.448414c0.062773,0.329096 0.593073,0.988557 1.178451,1.46547c0.585378,0.476913 0.994472,1.063537 0.909078,1.303635c-0.085394,0.240088 0.194104,0.736859 0.621075,1.103942c0.427029,0.367073 0.671582,0.700593 0.543491,0.741145c-0.128091,0.040601 -0.372645,0.133109 -0.543491,0.205661c-0.170788,0.072551 -0.520175,0.161609 -0.776358,0.197884c-0.679971,0.096342 -0.569294,1.813048 0.167317,2.594726c0.34823,0.36954 0.555583,0.885167 0.460758,1.14585c-0.094825,0.260684 -0.030663,0.623116 0.143249,0.805409c0.446526,0.468979 0.391679,2.143442 -0.092684,2.826458c-0.224536,0.31668 -0.958255,0.647477 -1.630358,0.735119c-0.829469,0.108159 -1.222132,0.410181 -1.222132,0.939993c0,1.104335 -0.46718,1.554763 -1.622374,1.564083c-0.778325,0.005898 -1.097396,0.331289 -1.432493,1.459217c-0.237206,0.798134 -0.371199,1.735916 -0.297896,2.083966c0.098354,0.46721 -0.11976,0.509511 -0.833635,0.161628c-0.851223,-0.414841 -1.007026,-0.321487 -1.30255,0.780626c-0.286036,1.066722 -0.423037,1.159849 -0.926492,0.62989c-0.466833,-0.491403 -0.646763,-0.469313 -0.857182,0.105308c-0.146489,0.399967 -0.406259,0.580323 -0.577221,0.400773c-0.319129,-0.335113 -2.592662,0.286617 -3.562777,0.974293c-0.326824,0.231663 -0.543491,0.152378 -0.543491,-0.198917l0.000058,0.000039zm102.636277,-3.195457c0.341577,-0.238525 0.979082,-1.113949 1.416699,-1.945391c1.120307,-2.128637 2.307899,-3.55501 4.638998,-5.571487c0.993257,-0.859233 3.653262,-4.05063 3.782974,-4.538691c0.139315,-0.524395 3.348713,-3.157009 4.335027,-3.555973c0.478636,-0.193608 0.910003,-0.084545 1.03607,0.261922c0.400647,1.101641 -0.701841,2.914463 -2.526649,4.154473c-0.997654,0.677953 -2.023541,1.448453 -2.279781,1.712213c-0.256183,0.263771 -1.793393,1.650741 -3.415998,3.082177c-1.622605,1.431426 -3.629252,3.569805 -4.459126,4.751951c-0.965602,1.3754 -1.80427,2.137318 -2.329132,2.115916c-0.730305,-0.029787 -0.752117,-0.081006 -0.19908,-0.467111zm-22.319063,-10.185118c-0.299227,-1.897603 -0.224362,-8.746378 0.099337,-9.086357c0.540945,-0.568054 2.18918,-6.623315 2.199189,-8.079269c0.010992,-1.5712 0.630621,-3.282273 1.188923,-3.282273c0.414648,0 0.432756,1.607437 0.071162,6.332254c-0.185021,2.418056 -0.56241,4.247944 -1.279235,6.202527c-0.659201,1.797466 -1.002224,3.374939 -0.975322,4.485349c0.094304,3.897948 -0.841792,6.35863 -1.304055,3.427769zm-38.04999,-7.817356c-1.077436,-0.819644 -2.516988,-3.233768 -2.516988,-4.22088c0,-1.192153 -2.382764,-6.983074 -3.15108,-7.658186c-0.487372,-0.42822 -0.886051,-0.981125 -0.886051,-1.228695c0,-0.24756 -0.422863,-0.747742 -0.939683,-1.111511c-0.882985,-0.621445 -2.505648,-3.685828 -1.954057,-3.690115c0.13972,-0.000963 -0.201914,-0.474376 -0.759233,-1.05176c-0.557318,-0.577383 -1.247819,-1.885472 -1.534434,-2.906854c-0.348519,-1.241848 -1.089296,-2.42306 -2.236043,-3.565509c-0.943154,-0.939639 -2.28898,-2.302082 -2.990705,-3.027655c-0.701667,-0.725573 -1.736985,-1.794143 -2.300609,-2.374594c-0.563625,-0.58046 -1.823304,-2.035284 -2.799205,-3.232952c-0.975958,-1.197659 -2.111886,-2.4748 -2.524277,-2.838088c-0.412449,-0.363288 -1.029416,-1.203203 -1.371051,-1.866479c-0.341577,-0.663285 -1.929931,-2.354382 -3.529568,-3.758006c-2.118713,-1.859047 -3.594424,-3.661084 -5.434622,-6.636262c-1.389333,-2.246312 -2.918271,-4.620906 -3.3976,-5.276867c-0.47933,-0.655971 -1.317824,-1.81061 -1.863282,-2.565882c-0.545516,-0.755272 -1.500473,-1.942569 -2.122242,-2.638434c-1.068816,-1.196214 -4.768825,-6.436353 -6.491809,-9.194064c-0.434608,-0.695599 -1.232719,-1.808221 -1.773549,-2.472499c-0.540888,-0.664288 -1.817461,-2.320947 -2.836811,-3.681483c-1.019407,-1.360536 -2.247614,-2.820776 -2.729374,-3.244995c-0.48176,-0.424219 -1.244637,-1.448187 -1.695271,-2.2755c-1.560758,-2.865398 -4.464912,-7.396764 -5.546919,-8.654824c-0.597817,-0.695078 -1.226702,-1.451825 -1.397491,-1.681659c-0.170788,-0.229825 -0.953395,-1.229186 -1.739125,-2.220821c-1.599174,-2.018119 -2.440734,-4.645591 -1.93051,-6.027194c0.828312,-2.243215 3.67895,-2.024273 5.036174,0.386793c0.444038,0.788746 1.538657,2.730322 2.432519,4.314617c0.893862,1.584285 2.151574,3.588788 2.794924,4.454441c0.643349,0.865652 2.374375,3.596437 3.84673,6.068405c3.974937,6.673708 4.392419,7.279208 5.279107,7.657389c0.446699,0.190511 1.107984,1.026131 1.469462,1.856923c0.361479,0.830792 0.997075,1.822151 1.412359,2.203017c2.018045,1.850572 6.193218,7.453085 8.471611,11.367677c1.39697,2.400144 2.680197,4.363899 2.851622,4.363899c0.171425,0 0.392026,0.429725 0.490091,0.954965c0.281407,1.506317 2.689569,5.372118 3.569025,5.729262c1.155598,0.469274 2.220711,1.464044 3.281832,3.065179c0.512365,0.773164 1.631283,2.180337 2.486382,3.127045c0.855099,0.946708 1.973091,2.483451 2.484357,3.414989c0.511324,0.931529 1.872944,2.564929 3.025881,3.629763c1.152879,1.064835 2.096207,2.098309 2.096207,2.296606c0,0.198288 0.94327,1.000394 2.096207,1.782445c1.382969,0.938125 2.789427,2.466729 4.133633,4.492683c1.120596,1.688914 2.554998,3.43817 3.187528,3.887242c0.632472,0.449072 1.230405,1.172443 1.328643,1.607525c0.098238,0.435073 0.663425,1.277092 1.255977,1.871158c0.592552,0.594057 0.992042,1.314665 0.887787,1.601332c-0.108594,0.29865 0.016199,0.387029 0.2924,0.206968c0.265034,-0.172845 0.481933,-0.051415 0.481933,0.269885c0,0.321281 0.217882,0.584147 0.48419,0.584147c0.266249,0 0.407705,0.210016 0.314385,0.466688c-0.176863,0.486193 2.100199,1.644056 3.233176,1.644056c0.358181,0 1.199105,0.474917 1.868663,1.055377c0.669615,0.58046 1.500299,1.055377 1.846042,1.055377c0.345684,0 1.079461,0.684559 1.630531,1.52124c0.912896,1.385998 1.012291,1.843406 1.118108,5.144957c0.11438,3.570611 0.099742,3.650359 -0.99748,5.44288c-1.41693,2.314597 -3.879244,2.991222 -5.738419,1.576833zm-769.883966,-222.576011c-0.308831,-2.090828 0.100089,-3.902175 0.964156,-4.270663c0.424367,-0.180995 0.771614,-0.554822 0.771614,-0.830714c0,-0.275892 0.139778,-0.354863 0.310566,-0.17549c0.170788,0.179363 0.310566,0.563581 0.310566,0.853806c0,0.290235 -0.149093,0.371123 -0.331336,0.179747c-0.182244,-0.191357 -0.299921,-0.027231 -0.261563,0.364635c0.066649,0.681325 -0.047441,1.366483 -0.667937,4.010609c-0.367438,1.565931 -0.853942,1.507388 -1.096065,-0.13193zm772.331528,217.300953c-0.85938,-1.030417 -0.630563,-2.166545 0.514737,-2.555756c0.597181,-0.202967 0.973933,-0.767875 1.183195,-1.774207c0.168821,-0.812025 0.836817,-2.425459 1.484389,-3.585407c0.64763,-1.159948 2.018276,-3.769036 3.045957,-5.797979c1.027739,-2.028943 2.120969,-4.149351 2.429453,-4.712038c0.308541,-0.562686 0.634729,-1.418105 0.724867,-1.900936c0.205328,-1.099036 1.532351,-2.347343 1.987382,-1.869467c0.187103,0.196479 0.340188,0.713324 0.340188,1.148564c0,1.072935 -1.865076,4.950946 -2.381086,4.950946c-0.227602,0 -0.413896,0.226669 -0.413896,0.503721c0,0.277062 -0.854173,1.678189 -1.898227,3.113626c-1.483637,2.039855 -2.051543,3.250746 -2.600067,5.544029c-0.385952,1.613777 -0.642366,3.035077 -0.569757,3.158435c0.072608,0.123367 -0.399432,0.779161 -1.048914,1.45733c-0.649482,0.678159 -1.39049,1.662401 -1.646731,2.187189c-0.426855,0.874481 -0.523068,0.885501 -1.151491,0.131949zm-874.818364,-232.735805c-0.956635,-2.252653 -0.327923,-4.49286 0.747893,-2.664829c0.415631,0.706236 0.515489,4.115966 0.120512,4.115966c-0.138679,0 -0.529432,-0.653012 -0.868406,-1.451136z"/>
  </g>
 </g>
</svg>